<svg width="101" height="116" xmlns="http://www.w3.org/2000/svg" xmlns:xlink="http://www.w3.org/1999/xlink" xmlns:svgjs="http://svgjs.com/svgjs" viewBox="0.214 0 100.571 116" fill="#fff"><svg xmlns="http://www.w3.org/2000/svg" width="101" height="116" viewBox="0.488 0 100 115.341"><path paint-order="stroke fill markers" fill-rule="evenodd" d="M100.488 78.36a22.116 22.116 0 0 0-.765-5.746 1.72 1.72 0 1 0-3.32.896c.426 1.583.644 3.215.646 4.854.006 4.968-1.93 9.592-5.45 13.018a18.15 18.15 0 0 1-5.142 3.525 1.72 1.72 0 1 0 1.427 3.13 21.523 21.523 0 0 0 4.653-2.891c-5.81 10.01-16.644 16.756-29.027 16.756-8.502 0-16.519-3.144-22.729-8.878h16.698c4.616 0 8.372-3.755 8.372-8.372v-.498c0-1.771-.568-3.493-1.644-4.982-4.883-6.756-4.46-16.846.964-22.97.868-.98 1.839-1.866 2.883-2.636a1.718 1.718 0 0 0 .197-2.6L55.457 48.17a6.714 6.714 0 0 1-1.98-4.78c0-1.804.704-3.501 1.98-4.777 2.636-2.635 6.922-2.635 9.556-.001l9.243 9.242.008.008 17.313 17.313a18.757 18.757 0 0 1 2.18 2.619 1.72 1.72 0 1 0 2.833-1.95 22.156 22.156 0 0 0-2.581-3.101L77.195 45.93V8.25c0-4.549-3.7-8.25-8.247-8.25H30.09a1.72 1.72 0 1 0 0 3.44h38.857a4.814 4.814 0 0 1 4.807 4.81v1.77H12.018V8.25a4.815 4.815 0 0 1 4.81-4.81h6.383a1.72 1.72 0 0 0 0-3.44h-6.383c-4.549 0-8.25 3.701-8.25 8.25v25.642c-4.591.815-8.09 4.833-8.09 9.656a9.808 9.808 0 0 0 4.267 8.09A9.81 9.81 0 0 0 .488 59.73c0 4.822 3.499 8.84 8.09 9.657v25.39c0 4.549 3.701 8.248 8.25 8.248h19.129c.46.515.93 1.013 1.404 1.487 6.985 6.984 16.271 10.83 26.15 10.83 20.176 0 36.628-16.245 36.969-36.344.005-.212.009-.425.008-.638zm-26.733-64.9v29.03l-6.31-6.31c-3.974-3.973-10.443-3.973-14.42 0a10.131 10.131 0 0 0-2.987 7.211c0 2.725 1.06 5.286 2.987 7.213l11.444 11.444c-.66.585-1.286 1.21-1.873 1.873-4.075 4.602-5.778 11.078-5.021 17.244H12.018V13.46h61.737zM3.928 43.547c0-2.916 1.971-5.38 4.651-6.133v12.266c-2.68-.753-4.65-3.216-4.65-6.133zm0 16.181c0-2.916 1.971-5.38 4.651-6.132v12.265c-2.68-.753-4.65-3.217-4.65-6.133zm8.09 35.048V84.605h46.246c.665 2.35 1.715 4.59 3.155 6.583.65.897.992 1.923.992 2.966v.497a4.937 4.937 0 0 1-4.932 4.933H52.273 16.828a4.814 4.814 0 0 1-4.81-4.807z"/></svg></svg>