<svg width="101" height="101" xmlns="http://www.w3.org/2000/svg" xmlns:xlink="http://www.w3.org/1999/xlink" xmlns:svgjs="http://svgjs.com/svgjs" fill="#fff"><svg xmlns="http://www.w3.org/2000/svg" width="101" height="101" viewBox="0.307 0 100 100"><path paint-order="stroke fill markers" fill-rule="evenodd" d="M94.883 0H5.73A5.43 5.43 0 0 0 .307 5.424V70.71a5.43 5.43 0 0 0 5.423 5.424h9.543c-.453.58-.413 1.42.12 1.954l7.108 7.108a30.344 30.344 0 0 0-1.395 3.364h-10.05c-.817 0-1.479.662-1.479 1.479v8.482c0 .817.662 1.479 1.479 1.479h29.191a1.48 1.48 0 0 0 1.48-1.48c0-4.513 3.672-8.185 8.185-8.185s8.185 3.672 8.185 8.186c0 .817.662 1.479 1.48 1.479h29.19a1.48 1.48 0 0 0 1.48-1.48V90.04a1.48 1.48 0 0 0-1.48-1.48h-10.05a30.322 30.322 0 0 0-1.395-3.363l7.109-7.108a1.48 1.48 0 0 0 .12-1.954h10.331a5.43 5.43 0 0 0 5.424-5.424V34.114a1.48 1.48 0 1 0-2.958 0V70.71a2.468 2.468 0 0 1-2.466 2.465H81.61l-8.719-8.719V54.34a1.48 1.48 0 0 0-1.479-1.48h-2.663v-9.115l2.088-1.927c.42-.388.579-.981.41-1.526l-3.55-11.44a1.48 1.48 0 0 0-1.413-1.04h-3.946a1.48 1.48 0 0 0-1.413 1.04l-3.55 11.44a1.48 1.48 0 0 0 .41 1.526l2.088 1.927v9.115H57.21a1.48 1.48 0 0 0-1.48 1.48v3.846H44.093v-2.247l5.681-5.68c.278-.279.433-.655.433-1.047v-12.13c0-.396-.158-.775-.44-1.053l-7.889-7.79a1.48 1.48 0 0 0-2.519 1.051v13.188l-3.846 2.421-3.846-2.421v-.843a1.48 1.48 0 1 0-2.958 0v1.659c0 .509.26.981.69 1.252l5.326 3.353a1.478 1.478 0 0 0 1.576 0l5.326-3.353c.43-.27.69-.743.69-1.252V32.829l4.932 4.87v10.899l-5.681 5.68a1.48 1.48 0 0 0-.433 1.047v2.89a1.48 1.48 0 0 0-1.184 1.45v10.05a30.36 30.36 0 0 0-3.364 1.394l-6.695-6.695v-9.089a1.48 1.48 0 0 0-.433-1.046l-5.681-5.681v-10.9l4.93-4.869v1.876a1.48 1.48 0 1 0 2.96 0V29.29a1.48 1.48 0 1 0-2.52-1.053l-7.89 7.791c-.281.278-.439.657-.439 1.052v12.131c0 .392.156.768.433 1.046l5.681 5.681v8.518l-8.719 8.719H5.73a2.467 2.467 0 0 1-2.465-2.465V21.499h94.083v5.723a1.48 1.48 0 0 0 2.959 0V5.424A5.43 5.43 0 0 0 94.883 0zM62.355 42.01l-1.878-1.734 2.951-9.507h1.765l2.95 9.507-1.877 1.734a1.48 1.48 0 0 0-.476 1.087v9.763h-2.958v-9.763c-.001-.414-.173-.807-.477-1.087zm7.577 13.808v8.597l-6.695 6.695a30.464 30.464 0 0 0-3.365-1.396v-10.05a1.48 1.48 0 0 0-1.183-1.449V55.82h11.243zM36.997 74.221a27.404 27.404 0 0 1 4.866-2.018 1.48 1.48 0 0 0 1.047-1.415v-9.645h14.004v9.645c0 .65.425 1.225 1.047 1.415a27.419 27.419 0 0 1 4.866 2.018c.575.306 1.281.2 1.742-.26l6.821-6.82 8.56 8.56h.001l1.342 1.341-6.822 6.822a1.48 1.48 0 0 0-.26 1.742 27.35 27.35 0 0 1 2.019 4.866 1.48 1.48 0 0 0 1.414 1.046h9.645v5.523h-15.04c-.765-11.657-10.49-20.907-22.337-20.907-3.168 0-6.23.649-9.1 1.928a1.48 1.48 0 0 0 1.203 2.703 19.28 19.28 0 0 1 7.897-1.672c10.215 0 18.614 7.924 19.372 17.948h-8.326c-.726-5.447-5.402-9.664-11.046-9.664-5.643 0-10.32 4.217-11.046 9.664H30.54c.36-4.857 2.489-9.32 6.087-12.695a1.48 1.48 0 0 0-2.024-2.158 22.482 22.482 0 0 0-7.025 14.853H12.535v-5.523h9.644a1.48 1.48 0 0 0 1.416-1.046 27.365 27.365 0 0 1 2.018-4.867 1.48 1.48 0 0 0-.26-1.741l-6.821-6.822 1.341-1.34.001-.002 8.56-8.56 6.821 6.822a1.48 1.48 0 0 0 1.742.259zM3.265 18.54V5.423A2.468 2.468 0 0 1 5.73 2.959h89.153a2.468 2.468 0 0 1 2.465 2.465V18.54H3.265z"/></svg></svg>