<svg width="101" height="91" xmlns="http://www.w3.org/2000/svg" xmlns:xlink="http://www.w3.org/1999/xlink" xmlns:svgjs="http://svgjs.com/svgjs" viewBox="0.182 0 100.635 91" fill="#fff"><svg xmlns="http://www.w3.org/2000/svg" width="101" height="91" viewBox="0.016 0 100 90.425"><path paint-order="stroke fill markers" fill-rule="evenodd" d="M98.42 0H1.61C.73 0 .016.714.016 1.596V88.83c0 .881.714 1.595 1.595 1.595H98.42c.881 0 1.596-.714 1.596-1.595V71.808a1.596 1.596 0 1 0-3.192 0v15.426H3.207V15.957h93.617v49.468a1.596 1.596 0 1 0 3.192 0V1.595C100.016.716 99.3 0 98.42 0zM3.207 3.191H62.25v9.575H3.207V3.19zm62.234 9.575V3.19h31.383v9.575H65.441z"/></svg></svg>