<svg width="101" height="106" xmlns="http://www.w3.org/2000/svg" xmlns:xlink="http://www.w3.org/1999/xlink" xmlns:svgjs="http://svgjs.com/svgjs" viewBox="0.49 0 100.021 106" fill="#fff"><svg xmlns="http://www.w3.org/2000/svg" width="101" height="106" viewBox="0.014 0 100 105.978"><path paint-order="stroke fill markers" fill-rule="evenodd" d="M100.014 24.804c0-4.654-1.298-9.19-3.754-13.119a1.552 1.552 0 1 0-2.633 1.646 21.619 21.619 0 0 1 3.282 11.473c0 11.964-9.75 21.698-21.732 21.698-11.984 0-21.733-9.734-21.733-21.698 0-11.965 9.75-21.7 21.733-21.7 5.037 0 9.947 1.761 13.823 4.956a1.553 1.553 0 0 0 1.975-2.396A24.896 24.896 0 0 0 75.177 0c-9.218 0-17.278 5.04-21.564 12.505h-38.01c-8.595 0-15.59 6.985-15.59 15.57V37.5a1.552 1.552 0 1 0 3.105 0v-9.424c0-6.873 5.601-12.465 12.485-12.465H52.11a24.643 24.643 0 0 0-1.77 9.194c0 13.676 11.142 24.803 24.838 24.803 4.626 0 8.962-1.272 12.674-3.481v44.282c0 6.873-5.6 12.465-12.484 12.465h-6.888a1.552 1.552 0 1 0 0 3.105h6.888c8.595 0 15.59-6.985 15.59-15.57V43.944c5.527-4.553 9.057-11.443 9.057-19.14z"/></svg></svg>