<svg width="101" height="109" xmlns="http://www.w3.org/2000/svg" xmlns:xlink="http://www.w3.org/1999/xlink" xmlns:svgjs="http://svgjs.com/svgjs" viewBox="0.092 0 100.817 109" fill="#fff"><svg xmlns="http://www.w3.org/2000/svg" width="101" height="109" viewBox="0.932 0 100 108.117"><path paint-order="stroke fill markers" fill-rule="evenodd" d="M99.347 76.087c-.874 0-1.584.709-1.584 1.584v21.364a5.921 5.921 0 0 1-5.914 5.915 5.921 5.921 0 0 1-5.914-5.915V63.807c0-5.008-4.075-9.082-9.083-9.082s-9.082 4.074-9.082 9.082V74.52a5.921 5.921 0 0 1-5.914 5.914 5.921 5.921 0 0 1-5.915-5.914v-7.906l8.061-8.062a4.28 4.28 0 0 0 1.123-4.063L84.554 35.06a4.29 4.29 0 0 0 0-6.06L63.746 8.194H78.01a1.584 1.584 0 1 0 0-3.167H60.578l-3.772-3.773a4.29 4.29 0 0 0-6.06 0L31.32 20.679a4.258 4.258 0 0 0-4.065 1.124l-8.403 8.404a4.289 4.289 0 0 0 0 6.059l11.144 11.145c-4.893 4.78-10.635 9.125-17.085 12.921-1.875 1.105-3.664 2.502-5.316 4.154-2.98 2.98-5.152 6.445-6.117 9.758-1.06 3.64-.564 6.727 1.397 8.688 1.308 1.308 3.104 1.949 5.178 1.949 3.035-.001 6.665-1.374 10.222-4.03a1.584 1.584 0 0 0-1.894-2.537c-4.528 3.379-9.265 4.38-11.266 2.379-1.09-1.091-1.308-3.118-.596-5.563.818-2.81 2.707-5.794 5.316-8.404 1.463-1.463 3.038-2.696 4.683-3.663 6.682-3.934 12.636-8.444 17.718-13.412l3.92 3.92c-4.968 5.082-9.477 11.037-13.411 17.718a22.32 22.32 0 0 1-1.72 2.498 1.584 1.584 0 0 0 2.486 1.963c.74-.935 1.4-1.895 1.963-2.854 3.798-6.45 8.143-12.192 12.923-17.085L49.54 66.955a4.253 4.253 0 0 0 3.03 1.255c.068 0 .136-.007.203-.01v6.32c0 5.007 4.075 9.081 9.083 9.081s9.082-4.074 9.082-9.082V63.807a5.922 5.922 0 0 1 5.915-5.914 5.921 5.921 0 0 1 5.914 5.914v35.228c0 5.008 4.074 9.082 9.082 9.082 5.009 0 9.083-4.074 9.083-9.082V77.67c-.001-.875-.71-1.584-1.585-1.584zM52.986 3.492a1.118 1.118 0 0 1 1.58 0l27.747 27.749a1.117 1.117 0 0 1 0 1.579L63.322 51.81l-7.409-7.408 3.21-3.208a1.584 1.584 0 0 0-2.24-2.24l-3.21 3.208-11.217-11.217 3.21-3.208a1.583 1.583 0 1 0-2.24-2.24l-3.21 3.209L38.51 27l12.63-12.63a1.584 1.584 0 0 0-2.239-2.24L36.27 24.76l-2.276-2.276L52.986 3.492zM51.78 64.715L21.09 34.027a1.118 1.118 0 0 1 0-1.58l8.404-8.403a1.11 1.11 0 0 1 .79-.327c.298 0 .579.116.79.327l30.689 30.689a1.118 1.118 0 0 1 0 1.58l-8.403 8.402a1.11 1.11 0 0 1-.79.328c-.3 0-.579-.117-.79-.328z"/></svg></svg>