<svg width="802" height="527" xmlns="http://www.w3.org/2000/svg" xmlns:xlink="http://www.w3.org/1999/xlink" xmlns:svgjs="http://svgjs.com/svgjs" viewBox="1038 373 802 527"><svg width="802" height="499" xmlns="http://www.w3.org/2000/svg" xmlns:xlink="http://www.w3.org/1999/xlink" xmlns:svgjs="http://svgjs.com/svgjs" viewBox="0.345 0 801.31 499" fill="#e2e1ff" x="1038" y="373"><svg xmlns="http://www.w3.org/2000/svg" xmlns:xlink="http://www.w3.org/1999/xlink" width="802" height="499" viewBox="1 0 801 498.807"><path paint-order="stroke fill markers" fill-rule="evenodd" d="M401.5 0C622.69 0 802 179.31 802 400.5s-98.81 0-320 0-481 221.19-481 0S180.31 0 401.5 0z"/></svg></svg><svg width="217" height="51" xmlns="http://www.w3.org/2000/svg" xmlns:xlink="http://www.w3.org/1999/xlink" xmlns:svgjs="http://svgjs.com/svgjs" viewBox="0 0.376 217 50.248" fill="#565661" x="1277" y="610"><svg xmlns="http://www.w3.org/2000/svg" xmlns:xlink="http://www.w3.org/1999/xlink" width="217" height="51" viewBox="0.594 0.592 216.213 50.066"><path paint-order="stroke fill markers" fill-rule="evenodd" d="M.594.592h216.213v50.066H.594V.592z"/></svg></svg><svg width="217" height="51" xmlns="http://www.w3.org/2000/svg" xmlns:xlink="http://www.w3.org/1999/xlink" xmlns:svgjs="http://svgjs.com/svgjs" viewBox="0 0.376 217 50.248" opacity=".102" x="1277" y="610"><svg xmlns="http://www.w3.org/2000/svg" xmlns:xlink="http://www.w3.org/1999/xlink" width="217" height="51" viewBox="0.594 0.592 216.213 50.066"><path paint-order="stroke fill markers" fill-rule="evenodd" d="M.594.592h216.213v50.066H.594V.592z"/></svg></svg><svg width="23" height="187" xmlns="http://www.w3.org/2000/svg" xmlns:xlink="http://www.w3.org/1999/xlink" xmlns:svgjs="http://svgjs.com/svgjs" viewBox="0.247 0 22.506 187" fill="#bcbec9" x="1282" y="662"><svg xmlns="http://www.w3.org/2000/svg" xmlns:xlink="http://www.w3.org/1999/xlink" width="23" height="187" viewBox="0.576 0.306 22.405 186.157"><path paint-order="stroke fill markers" fill-rule="evenodd" d="M21.463.306l1.518 133.657-20.796 52.5L.575.305h20.888z"/></svg></svg><svg width="212" height="39" xmlns="http://www.w3.org/2000/svg" xmlns:xlink="http://www.w3.org/1999/xlink" xmlns:svgjs="http://svgjs.com/svgjs" viewBox="0 0.086 212 38.828" fill="#565661" x="1279" y="620"><svg xmlns="http://www.w3.org/2000/svg" xmlns:xlink="http://www.w3.org/1999/xlink" width="212" height="39" viewBox="0.875 0.204 210.507 38.554"><path paint-order="stroke fill markers" fill-rule="evenodd" d="M.875.204l210.507 1.267v37.287H.875V.204z"/></svg></svg><svg width="19" height="185" xmlns="http://www.w3.org/2000/svg" xmlns:xlink="http://www.w3.org/1999/xlink" xmlns:svgjs="http://svgjs.com/svgjs" viewBox="0.452 0 18.096 184.999" fill="#bcbec9" x="1472" y="662"><svg xmlns="http://www.w3.org/2000/svg" xmlns:xlink="http://www.w3.org/1999/xlink" width="19" height="185" viewBox="0.371 0.306 18.011 184.128"><path paint-order="stroke fill markers" fill-rule="evenodd" d="M.371.306l18.011 2.54v181.587L.372 128.891V.306z"/></svg></svg><svg width="102" height="217" xmlns="http://www.w3.org/2000/svg" xmlns:xlink="http://www.w3.org/1999/xlink" xmlns:svgjs="http://svgjs.com/svgjs" viewBox="0 0.127 102 216.746" fill="#efeff0" x="1497" y="612"><svg xmlns="http://www.w3.org/2000/svg" xmlns:xlink="http://www.w3.org/1999/xlink" width="102" height="217" viewBox="0.225 0.599 101.451 215.58"><path paint-order="stroke fill markers" fill-rule="evenodd" d="M.225.599h101.45v215.58H.225V.598z"/></svg></svg><svg width="86" height="167" xmlns="http://www.w3.org/2000/svg" xmlns:xlink="http://www.w3.org/1999/xlink" xmlns:svgjs="http://svgjs.com/svgjs" viewBox="0.06 0 85.88 167.001" fill="#565661" x="1505" y="618"><svg xmlns="http://www.w3.org/2000/svg" xmlns:xlink="http://www.w3.org/1999/xlink" width="86" height="167" viewBox="0.342 0.587 85.217 165.712"><path paint-order="stroke fill markers" fill-rule="evenodd" d="M.342.587h85.217V166.3H.342V.587z"/></svg></svg><svg width="86" height="167" xmlns="http://www.w3.org/2000/svg" xmlns:xlink="http://www.w3.org/1999/xlink" xmlns:svgjs="http://svgjs.com/svgjs" viewBox="0.06 0 85.88 167.001" opacity=".102" x="1505" y="618"><svg xmlns="http://www.w3.org/2000/svg" xmlns:xlink="http://www.w3.org/1999/xlink" width="86" height="167" viewBox="0.342 0.587 85.217 165.712"><path paint-order="stroke fill markers" fill-rule="evenodd" d="M.342.587h85.217V166.3H.342V.587z"/></svg></svg><svg width="86" height="38" xmlns="http://www.w3.org/2000/svg" xmlns:xlink="http://www.w3.org/1999/xlink" xmlns:svgjs="http://svgjs.com/svgjs" viewBox="0 0.443 86 37.114" fill="#565661" x="1505" y="621"><svg xmlns="http://www.w3.org/2000/svg" xmlns:xlink="http://www.w3.org/1999/xlink" width="86" height="38" viewBox="0.342 0.982 85.217 36.777"><path paint-order="stroke fill markers" fill-rule="evenodd" d="M.342.982h85.217v36.776H.342V.982z"/></svg></svg><svg width="86" height="79" xmlns="http://www.w3.org/2000/svg" xmlns:xlink="http://www.w3.org/1999/xlink" xmlns:svgjs="http://svgjs.com/svgjs" viewBox="0 0.084 86 78.833" fill="#565661" x="1505" y="662"><svg xmlns="http://www.w3.org/2000/svg" xmlns:xlink="http://www.w3.org/1999/xlink" width="86" height="79" viewBox="0.342 0.306 85.217 78.115"><path paint-order="stroke fill markers" fill-rule="evenodd" d="M.342.306h85.217V78.42H.342V.306z"/></svg></svg><svg width="86" height="79" xmlns="http://www.w3.org/2000/svg" xmlns:xlink="http://www.w3.org/1999/xlink" xmlns:svgjs="http://svgjs.com/svgjs" viewBox="0 0.084 86 78.833" fill="#565661" x="1505" y="745"><svg xmlns="http://www.w3.org/2000/svg" xmlns:xlink="http://www.w3.org/1999/xlink" width="86" height="79" viewBox="0.342 0.242 85.217 78.115"><path paint-order="stroke fill markers" fill-rule="evenodd" d="M.342.242h85.217v78.115H.342V.242z"/></svg></svg><svg width="86" height="79" xmlns="http://www.w3.org/2000/svg" xmlns:xlink="http://www.w3.org/1999/xlink" xmlns:svgjs="http://svgjs.com/svgjs" viewBox="0 0.084 86 78.833" opacity=".102" x="1505" y="745"><svg xmlns="http://www.w3.org/2000/svg" xmlns:xlink="http://www.w3.org/1999/xlink" width="86" height="79" viewBox="0.342 0.242 85.217 78.115"><path paint-order="stroke fill markers" fill-rule="evenodd" d="M.342.242h85.217v78.115H.342V.242z"/></svg></svg><svg width="12" height="15" xmlns="http://www.w3.org/2000/svg" xmlns:xlink="http://www.w3.org/1999/xlink" xmlns:svgjs="http://svgjs.com/svgjs" viewBox="0.131 0 11.739 15" fill="#565661" x="1503" y="828"><svg xmlns="http://www.w3.org/2000/svg" xmlns:xlink="http://www.w3.org/1999/xlink" width="12" height="15" viewBox="0.404 0.178 10.985 14.037"><path paint-order="stroke fill markers" fill-rule="evenodd" d="M5.896 14.215c-3.037 0-5.492-3.138-5.492-7.019 0-3.88 2.455-7.018 5.492-7.018 3.038 0 5.493 3.138 5.493 7.018 0 3.881-2.455 7.019-5.493 7.019z"/></svg></svg><svg width="12" height="15" xmlns="http://www.w3.org/2000/svg" xmlns:xlink="http://www.w3.org/1999/xlink" xmlns:svgjs="http://svgjs.com/svgjs" viewBox="0.13 0 11.739 15" fill="#565661" x="1579" y="828"><svg xmlns="http://www.w3.org/2000/svg" xmlns:xlink="http://www.w3.org/1999/xlink" width="12" height="15" viewBox="0.574 0.514 10.985 14.036"><path paint-order="stroke fill markers" fill-rule="evenodd" d="M6.066 14.55C3.03 14.55.574 11.413.574 7.532c0-3.88 2.455-7.018 5.492-7.018 3.038 0 5.493 3.137 5.493 7.018S9.104 14.55 6.066 14.55z"/></svg></svg><svg width="15" height="235" xmlns="http://www.w3.org/2000/svg" xmlns:xlink="http://www.w3.org/1999/xlink" xmlns:svgjs="http://svgjs.com/svgjs" viewBox="0.877 0 13.246 235" fill="#efeff0" x="1270" y="614"><svg xmlns="http://www.w3.org/2000/svg" xmlns:xlink="http://www.w3.org/1999/xlink" width="15" height="235" viewBox="0.996 0.468 13.19 233.995"><path paint-order="stroke fill markers" fill-rule="evenodd" d="M6.832 234.462h7.353L12.164.468H.996l5.836 233.994z"/></svg></svg><svg width="8" height="235" xmlns="http://www.w3.org/2000/svg" xmlns:xlink="http://www.w3.org/1999/xlink" xmlns:svgjs="http://svgjs.com/svgjs" viewBox="0.562 0 6.877 235" fill="#efeff0" x="1490" y="612"><svg xmlns="http://www.w3.org/2000/svg" xmlns:xlink="http://www.w3.org/1999/xlink" width="8" height="235" viewBox="0.382 0.599 6.843 233.834"><path paint-order="stroke fill markers" fill-rule="evenodd" d="M.382.599v233.834h6.843V2.468L.382.598z"/></svg></svg><svg width="209" height="9" xmlns="http://www.w3.org/2000/svg" xmlns:xlink="http://www.w3.org/1999/xlink" xmlns:svgjs="http://svgjs.com/svgjs" viewBox="0 0.289 208.999 8.422" fill="#efeff0" x="1282" y="656"><svg xmlns="http://www.w3.org/2000/svg" xmlns:xlink="http://www.w3.org/1999/xlink" width="209" height="9" viewBox="0.523 0.47 207.86 8.376"><path paint-order="stroke fill markers" fill-rule="evenodd" d="M.523.47v8.376h207.859V2.758L.522.47z"/></svg></svg><svg width="330" height="21" xmlns="http://www.w3.org/2000/svg" xmlns:xlink="http://www.w3.org/1999/xlink" xmlns:svgjs="http://svgjs.com/svgjs" viewBox="0 0.444 330 20.112" fill="#fff" x="1269" y="596"><svg xmlns="http://www.w3.org/2000/svg" xmlns:xlink="http://www.w3.org/1999/xlink" width="330" height="21" viewBox="0.73 0.877 328.694 20.032"><path paint-order="stroke fill markers" fill-rule="evenodd" d="M27.612.877H291.13l38.295 12.678v7.354L.73 18.376v-7.483L27.612.877z"/></svg></svg><svg width="330" height="11" xmlns="http://www.w3.org/2000/svg" xmlns:xlink="http://www.w3.org/1999/xlink" xmlns:svgjs="http://svgjs.com/svgjs" viewBox="0 0.472 330 10.056" fill="#bcbec9" x="1269" y="606"><svg xmlns="http://www.w3.org/2000/svg" xmlns:xlink="http://www.w3.org/1999/xlink" width="330" height="11" viewBox="0.73 0.893 328.694 10.016"><path paint-order="stroke fill markers" fill-rule="evenodd" d="M.73.893l328.694 2.662v7.354L.73 8.376V.893z"/></svg></svg><svg width="3" height="3" xmlns="http://www.w3.org/2000/svg" xmlns:xlink="http://www.w3.org/1999/xlink" xmlns:svgjs="http://svgjs.com/svgjs" viewBox="0 0.239 3 2.522" fill="gray" x="1297" y="692"><svg xmlns="http://www.w3.org/2000/svg" xmlns:xlink="http://www.w3.org/1999/xlink" width="3" height="3" viewBox="0.825 0.613 1.77 1.488"><path paint-order="stroke fill markers" fill-rule="evenodd" d="M2.503 2.101L.978 1.872v-.19C.932 1.321.878.971.825.612c.626.496 1.22.992 1.77 1.488h-.092z"/></svg></svg><svg width="43" height="42" xmlns="http://www.w3.org/2000/svg" xmlns:xlink="http://www.w3.org/1999/xlink" xmlns:svgjs="http://svgjs.com/svgjs" viewBox="0 0.402 43 41.195" fill="#a26565" x="1255" y="810"><svg xmlns="http://www.w3.org/2000/svg" xmlns:xlink="http://www.w3.org/1999/xlink" width="43" height="42" viewBox="0.485 0.503 42.332 40.556"><path paint-order="stroke fill markers" fill-rule="evenodd" d="M11.35 1.892a33.61 33.61 0 0 1 3.006-.557 36.176 36.176 0 0 1 20.307 2.99c-.641 4.714-1.274 9.59.084 14.143.946 3.204 2.845 6.103 3.25 9.444a5.569 5.569 0 0 1 4.386 3.875c.292.876.44 1.793.435 2.716a14.492 14.492 0 0 1-.428 3.387 3.418 3.418 0 0 1-3.661 3.052c-5.905.67-11.695-1.656-17.187-3.937l-10.68-4.44c-1.251-.518-2.51-1.044-3.707-1.685a20.315 20.315 0 0 1-5.943-4.86 2.71 2.71 0 0 1-.71-1.281c-.198-1.343 1.374-2.144 2.373-3.052.293-.276.549-.589.763-.93 1.182-1.785 1.297-4.25 2.006-6.355 1.678-4.996 6.866-8.216 8.697-13.09.099-.267.19-.534.267-.809L11.35 1.892"/></svg></svg><svg width="43" height="22" xmlns="http://www.w3.org/2000/svg" xmlns:xlink="http://www.w3.org/1999/xlink" xmlns:svgjs="http://svgjs.com/svgjs" viewBox="0 0.689 43 20.623" opacity=".102" x="1255" y="830"><svg xmlns="http://www.w3.org/2000/svg" xmlns:xlink="http://www.w3.org/1999/xlink" width="43" height="22" viewBox="0.485 0.757 42.332 20.302"><path paint-order="stroke fill markers" fill-rule="evenodd" d="M42.818 14.503a14.492 14.492 0 0 1-.428 3.387 3.418 3.418 0 0 1-3.661 3.052c-5.905.671-11.695-1.656-17.187-3.937l-10.68-4.44c-1.251-.518-2.51-1.044-3.707-1.685a20.313 20.313 0 0 1-5.943-4.86 2.708 2.708 0 0 1-.71-1.281C.305 3.396 1.877 2.595 2.876 1.687c.293-.276.549-.589.763-.93 2.944.633 6.598 2.487 8.849 3.204a26.876 26.876 0 0 1 6.438 2.693c2.808 1.8 4.829 4.577 7.21 6.865 2.38 2.289 5.454 4.371 8.772 4.09a14.495 14.495 0 0 0 4.989-1.725l2.922-1.38z"/></svg></svg><svg width="51" height="94" xmlns="http://www.w3.org/2000/svg" xmlns:xlink="http://www.w3.org/1999/xlink" xmlns:svgjs="http://svgjs.com/svgjs" viewBox="0.06 0 50.879 94" fill="#454b69" x="1264" y="728"><svg xmlns="http://www.w3.org/2000/svg" xmlns:xlink="http://www.w3.org/1999/xlink" width="51" height="94" viewBox="0.585 0.621 50.272 92.879"><path paint-order="stroke fill markers" fill-rule="evenodd" d="M21.314 8.096a3.532 3.532 0 0 1-1.296 3.814c-1 .618-2.289.534-3.28 1.205-1.229.862-1.404 2.57-1.618 4.05-.763 5.089-3.288 9.704-5.446 14.38-2.16 4.677-3.983 9.78-3.19 14.86.542 3.449 2.236 7.125.65 10.23-.39.763-.97 1.442-1.412 2.182-2.174 3.631-.938 8.231-1.022 12.457.031.47-.072.938-.298 1.35a3.73 3.73 0 0 1-1.205.931A6.392 6.392 0 0 0 .596 78.46c-.065 1.921.167 3.84.686 5.691.084.747.414 1.445.939 1.983a3.508 3.508 0 0 0 2.052.58 45.65 45.65 0 0 1 13.93 3.387c2.89 1.206 5.698 2.716 8.772 3.296.6.186 1.252.117 1.8-.191.387-.349.654-.81.763-1.32 1.182-3.89 2.38-7.903 1.976-11.946-.176-1.74-.641-3.44-.763-5.18-.534-6.865 4.112-13.06 5.584-19.833.664-3.052.664-6.21 1.137-9.292 1.281-8.444 5.934-16.02 7.727-24.373a26.5 26.5 0 0 1 1.16-4.577c1.335-3.234 4.424-5.858 4.493-9.36a3.646 3.646 0 0 0-.58-2.182 4.943 4.943 0 0 0-2.723-1.525A92.975 92.975 0 0 0 34.924 1.07a23.915 23.915 0 0 0-5.935-.412 17.47 17.47 0 0 0-7.263 2.563c-2.944 1.816-1.052 2.25-.412 4.875z"/></svg></svg><svg width="51" height="94" xmlns="http://www.w3.org/2000/svg" xmlns:xlink="http://www.w3.org/1999/xlink" xmlns:svgjs="http://svgjs.com/svgjs" viewBox="0.06 0 50.879 94" opacity=".051" x="1264" y="728"><svg xmlns="http://www.w3.org/2000/svg" xmlns:xlink="http://www.w3.org/1999/xlink" width="51" height="94" viewBox="0.585 0.621 50.272 92.879"><path paint-order="stroke fill markers" fill-rule="evenodd" d="M21.314 8.096a3.532 3.532 0 0 1-1.296 3.814c-1 .618-2.289.534-3.28 1.205-1.229.862-1.404 2.57-1.618 4.05-.763 5.089-3.288 9.704-5.446 14.38-2.16 4.677-3.983 9.78-3.19 14.86.542 3.449 2.236 7.125.65 10.23-.39.763-.97 1.442-1.412 2.182-2.174 3.631-.938 8.231-1.022 12.457.031.47-.072.938-.298 1.35a3.73 3.73 0 0 1-1.205.931A6.392 6.392 0 0 0 .596 78.46c-.065 1.921.167 3.84.686 5.691.084.747.414 1.445.939 1.983a3.508 3.508 0 0 0 2.052.58 45.65 45.65 0 0 1 13.93 3.387c2.89 1.206 5.698 2.716 8.772 3.296.6.186 1.252.117 1.8-.191.387-.349.654-.81.763-1.32 1.182-3.89 2.38-7.903 1.976-11.946-.176-1.74-.641-3.44-.763-5.18-.534-6.865 4.112-13.06 5.584-19.833.664-3.052.664-6.21 1.137-9.292 1.281-8.444 5.934-16.02 7.727-24.373a26.5 26.5 0 0 1 1.16-4.577c1.335-3.234 4.424-5.858 4.493-9.36a3.646 3.646 0 0 0-.58-2.182 4.943 4.943 0 0 0-2.723-1.525A92.975 92.975 0 0 0 34.924 1.07a23.915 23.915 0 0 0-5.935-.412 17.47 17.47 0 0 0-7.263 2.563c-2.944 1.816-1.052 2.25-.412 4.875z"/></svg></svg><svg width="12" height="96" xmlns="http://www.w3.org/2000/svg" xmlns:xlink="http://www.w3.org/1999/xlink" xmlns:svgjs="http://svgjs.com/svgjs" viewBox="0.374 0 11.252 96" fill="#565661" x="1259" y="756"><svg xmlns="http://www.w3.org/2000/svg" xmlns:xlink="http://www.w3.org/1999/xlink" width="12" height="96" viewBox="0.324 0.692 11.061 94.371"><path paint-order="stroke fill markers" fill-rule="evenodd" d="M11.386 95.064H4.879L.622 7.61.324 2.637 5.855.692l.374 5.287 5.157 89.085z"/></svg></svg><svg width="7" height="8" xmlns="http://www.w3.org/2000/svg" xmlns:xlink="http://www.w3.org/1999/xlink" xmlns:svgjs="http://svgjs.com/svgjs" viewBox="0.087 0 6.827 8" opacity=".102" x="1259" y="756"><svg xmlns="http://www.w3.org/2000/svg" xmlns:xlink="http://www.w3.org/1999/xlink" width="7" height="8" viewBox="0.324 0.692 5.904 6.919"><path paint-order="stroke fill markers" fill-rule="evenodd" d="M6.229 5.979L.622 7.61.324 2.637 5.855.692l.374 5.287z"/></svg></svg><svg width="191" height="166" xmlns="http://www.w3.org/2000/svg" xmlns:xlink="http://www.w3.org/1999/xlink" xmlns:svgjs="http://svgjs.com/svgjs" viewBox="0.099 0 190.802 166" fill="#565661" x="1162" y="733"><svg xmlns="http://www.w3.org/2000/svg" xmlns:xlink="http://www.w3.org/1999/xlink" width="191" height="166" viewBox="0.718 0.403 189.315 164.706"><path paint-order="stroke fill markers" fill-rule="evenodd" d="M190.033 136.563l-10.733 1.296-49.448-112.221-13.334-.977-23.42 6.835-4.554 133.612H77.811l4.226-138.494-25.7.656-45.862 114.167H.718L48.952 8.008l1.862-5.141L122.697.403l17.919 10.046.229.58 49.188 125.534z"/></svg></svg><svg width="93" height="24" xmlns="http://www.w3.org/2000/svg" xmlns:xlink="http://www.w3.org/1999/xlink" xmlns:svgjs="http://svgjs.com/svgjs" viewBox="0 0.549 93 22.901" opacity=".102" x="1210" y="733"><svg xmlns="http://www.w3.org/2000/svg" xmlns:xlink="http://www.w3.org/1999/xlink" width="93" height="24" viewBox="0.953 0.403 91.892 22.628"><path paint-order="stroke fill markers" fill-rule="evenodd" d="M92.845 11.03a2668.972 2668.972 0 0 0-31.483 9.733s-14.624 5.103-20.818 0a9.356 9.356 0 0 0-2.586-1.426 12.734 12.734 0 0 0 2.586 1.426L.953 8.001l1.853-5.134L74.696.403l17.92 10.046.229.58z"/></svg></svg><svg width="106" height="37" xmlns="http://www.w3.org/2000/svg" xmlns:xlink="http://www.w3.org/1999/xlink" xmlns:svgjs="http://svgjs.com/svgjs" viewBox="0 0.22 106 36.561" fill="#fff" x="1229" y="715"><svg xmlns="http://www.w3.org/2000/svg" xmlns:xlink="http://www.w3.org/1999/xlink" width="106" height="37" viewBox="0.717 0.377 104.419 36.016"><path paint-order="stroke fill markers" fill-rule="evenodd" d="M.726 6.884L29.996.377s69.938 13.014 75.14 18.216c0 0-55.946 11.382-62.126 15.257C36.831 37.726.07 42.013.726 6.884z"/></svg></svg><svg width="23" height="82" xmlns="http://www.w3.org/2000/svg" xmlns:xlink="http://www.w3.org/1999/xlink" xmlns:svgjs="http://svgjs.com/svgjs" viewBox="0.469 0 22.063 82" fill="#6c63ff" x="1196" y="581"><svg xmlns="http://www.w3.org/2000/svg" xmlns:xlink="http://www.w3.org/1999/xlink" width="23" height="82" viewBox="0.775 0.609 21.861 81.25"><path paint-order="stroke fill markers" fill-rule="evenodd" d="M21.14 67.735c-2.29 7.254-8.537 13.792-16.143 14.105a2.815 2.815 0 0 1-1.61-.29c-.953-.595-.976-1.991-.587-3.052.39-1.06 1.068-2.014 1.175-3.127a2.044 2.044 0 0 0-.046-.68c-.198-.907-.938-1.716-1.808-1.525a3.051 3.051 0 0 0 .649-4.05 9.154 9.154 0 0 1-.93-1.252c-.634-1.297.35-2.753.762-4.142.847-3.051-1.304-6.103-1.48-9.284-.152-2.845 1.29-5.523 1.648-8.345.572-4.577-1.701-8.964-1.968-13.533-.183-3.189.602-6.347 1.48-9.421.763-2.746 1.625-5.523 1.678-8.392 0-2.082-.359-4.142-.458-6.217a10.825 10.825 0 0 1 1-5.523A4.416 4.416 0 0 1 7.012.864c2.502-.84 4.142.465 4.508 2.838.61 4.035.26 8.154 1.06 12.205a57.22 57.22 0 0 0 3.349 11.054c1.35 3.219 2.99 6.331 4.028 9.665a53.242 53.242 0 0 1 1.67 8.391c1.023 7.621 1.824 15.463-.488 22.718z"/></svg></svg><svg width="43" height="33" xmlns="http://www.w3.org/2000/svg" xmlns:xlink="http://www.w3.org/1999/xlink" xmlns:svgjs="http://svgjs.com/svgjs" viewBox="0 0.269 43 32.461" fill="#a26565" x="1350" y="812"><svg xmlns="http://www.w3.org/2000/svg" xmlns:xlink="http://www.w3.org/1999/xlink" width="43" height="33" viewBox="0.123 0.841 42.446 32.044"><path paint-order="stroke fill markers" fill-rule="evenodd" d="M40.884 21.373a11.832 11.832 0 0 1-8.337 4.913c-3.311.412-6.752-.42-9.963.488a3.051 3.051 0 0 0-2.289 1.762c-.08.62-.128 1.244-.145 1.87-.373 2.036-3.051 2.494-5.134 2.479l-8.59-.054c-1.784 0-3.76-.099-5.042-1.335a3.753 3.753 0 0 1-.076-4.943c.267-.316.593-.575.961-.763a3.051 3.051 0 0 1-2.06-2.449 9.106 9.106 0 0 1 .16-3.364c0-3.188.764-8.528 3.006-11.023 2.754-3.105 7.53-7.117 11.687-7.949a9.154 9.154 0 0 1 7.919 2.25c1.968 1.832 3.402 4.7 6.102 5.02 1.472.183 2.891-.51 4.348-.763a8.094 8.094 0 0 1 8.247 4.356 8.59 8.59 0 0 1 .763 2.388 9.917 9.917 0 0 1-1.557 7.117z"/></svg></svg><svg width="43" height="19" xmlns="http://www.w3.org/2000/svg" xmlns:xlink="http://www.w3.org/1999/xlink" xmlns:svgjs="http://svgjs.com/svgjs" viewBox="0.012 0 42.977 19" opacity=".102" x="1350" y="826"><svg xmlns="http://www.w3.org/2000/svg" xmlns:xlink="http://www.w3.org/1999/xlink" width="43" height="19" viewBox="0.417 0.264 42.12 18.621"><path paint-order="stroke fill markers" fill-rule="evenodd" d="M40.884 7.373a11.832 11.832 0 0 1-8.337 4.913c-3.311.412-6.752-.42-9.963.488a3.051 3.051 0 0 0-2.289 1.762c-.08.62-.128 1.244-.145 1.87-.373 2.036-3.051 2.494-5.134 2.479l-8.59-.054c-1.784 0-3.76-.099-5.042-1.335a3.753 3.753 0 0 1-.076-4.943c4.959-.206 9.833 0 14.776-1.022 2.007-.405 3.982-.939 6.012-1.22 4.394-.626 9.07-.092 13.105-1.954 3.364-1.525 5.775-4.63 7.202-8.093a9.917 9.917 0 0 1-1.519 7.11z"/></svg></svg><svg width="178" height="141" xmlns="http://www.w3.org/2000/svg" xmlns:xlink="http://www.w3.org/1999/xlink" xmlns:svgjs="http://svgjs.com/svgjs" viewBox="0 0.178 178 140.645" fill="#454b69" x="1196" y="685"><svg xmlns="http://www.w3.org/2000/svg" xmlns:xlink="http://www.w3.org/1999/xlink" width="178" height="141" viewBox="0.643 0.633 177.316 140.104"><path paint-order="stroke fill markers" fill-rule="evenodd" d="M172.22 136.313c-3.051 2.364-6.629 4.21-10.473 4.409-3.845.198-7.926-1.526-9.81-4.867-2.755-4.905-.313-11.725-3.685-16.226-1.053-1.41-2.57-2.41-3.685-3.776-1.113-1.365-1.754-3.417-.763-4.867-1.197.458-2.464-.701-2.814-1.937-.351-1.236-.13-2.563-.344-3.814-.557-3.319-3.814-5.447-5.378-8.392-1.564-2.944-1.35-6.766-1.525-10.252a38.906 38.906 0 0 0-9.002-23.153c-1.038-1.235-2.365-2.494-3.982-2.433.282-2.792-1.58-5.462-3.99-6.866-2.41-1.403-5.279-1.876-8.07-2.15-28.172-2.778-57.527 7.696-84.425-1.115-7.483-2.449-14.7-6.545-19.277-12.968A22.672 22.672 0 0 1 .962 20.757v-.107c1.06-5.416 3.921-6.75 8.658-9.222A103.917 103.917 0 0 1 26.7 4.265C38.143.687 50.463-.602 62.272 2.022c5.515 1.236 10.832 3.28 16.355 4.478 2.174.473 4.364.808 6.568 1.09 3.425.428 6.866.71 10.314 1.107a156.023 156.023 0 0 1 32.39 7.285c3.914 1.327 7.827 2.845 11.191 5.248a24.792 24.792 0 0 1 9.947 16.37c.32 2.244.328 4.578.817 6.752a34.316 34.316 0 0 0 1.83 5.34 355.227 355.227 0 0 1 15.936 49.585 12.044 12.044 0 0 0 1.274 3.585c.977 1.58 2.655 2.64 3.64 4.218 2.288 3.723.083 8.918 2.112 12.793.702 1.343 1.87 2.403 2.571 3.746 2.288 4.402-1.09 9.665-4.997 12.694z"/></svg></svg><svg width="13" height="14" xmlns="http://www.w3.org/2000/svg" xmlns:xlink="http://www.w3.org/1999/xlink" xmlns:svgjs="http://svgjs.com/svgjs" viewBox="0.366 0 12.268 14" opacity=".102" x="1321" y="726"><svg xmlns="http://www.w3.org/2000/svg" xmlns:xlink="http://www.w3.org/1999/xlink" width="13" height="14" viewBox="0.572 0.667 11.437 13.051"><path paint-order="stroke fill markers" fill-rule="evenodd" d="M8.239 7.662a12.581 12.581 0 0 0 2.77-3.051 5.691 5.691 0 0 0 .838-3.944A11.282 11.282 0 0 1 8.88 10.37c-1.915 1.96-5.508 3.883-8.308 3.212.397-2.243 5.89-4.41 7.667-5.92z"/></svg></svg><svg width="86" height="21" xmlns="http://www.w3.org/2000/svg" xmlns:xlink="http://www.w3.org/1999/xlink" xmlns:svgjs="http://svgjs.com/svgjs" viewBox="0 0.315 86 20.371" opacity=".102" x="1196" y="685"><svg xmlns="http://www.w3.org/2000/svg" xmlns:xlink="http://www.w3.org/1999/xlink" width="86" height="21" viewBox="0.985 0.633 84.669 20.055"><path paint-order="stroke fill markers" fill-rule="evenodd" d="M85.577 10.642a5.119 5.119 0 0 1-3.387 3.494 14.11 14.11 0 0 1-5.028.587h-1.525c-20.017-.442-40.248-4.882-59.8-.648a43.3 43.3 0 0 0-6.91 2.036A31.201 31.201 0 0 0 .984 20.69v-.107c1.06-5.416 3.92-6.751 8.658-9.223A103.927 103.927 0 0 1 26.7 4.265C38.143.687 50.463-.602 62.272 2.022c5.515 1.236 10.832 3.28 16.355 4.478 2.174.473 4.364.808 6.568 1.09.428.957.56 2.02.382 3.052z"/></svg></svg><svg width="88" height="32" xmlns="http://www.w3.org/2000/svg" xmlns:xlink="http://www.w3.org/1999/xlink" xmlns:svgjs="http://svgjs.com/svgjs" viewBox="0.048 0 87.905 32" fill="#a26565" x="1194" y="673"><svg xmlns="http://www.w3.org/2000/svg" xmlns:xlink="http://www.w3.org/1999/xlink" width="88" height="32" viewBox="0.767 0.271 86.873 31.624"><path paint-order="stroke fill markers" fill-rule="evenodd" d="M87.577 21.55a5.11 5.11 0 0 1-3.387 3.502c-1.627.499-3.33.695-5.028.58h-1.525c-20.017-.442-40.248-4.882-59.8-.648a44.076 44.076 0 0 0-6.911 2.029 31.43 31.43 0 0 0-8.277 4.882c-.585-1.607-1.167-3.217-1.747-4.829-.702-1.922 1.526-2.35 1.953-4.073.282-1.167-.198-2.495-.442-3.738a6.528 6.528 0 0 1-.122-.923c-.138-2.754.846-4.34 3.104-5.828 6.698-4.425 14.868-7.461 22.512-9.742A55.701 55.701 0 0 1 40.417.336c6.012-.35 12.015.763 17.866 2.174 7.194 1.778 14.311 4.127 20.689 7.888 3.127 1.823 6.179 4.112 7.865 7.362a5.797 5.797 0 0 1 .74 3.79z"/></svg></svg><svg width="21" height="82" xmlns="http://www.w3.org/2000/svg" xmlns:xlink="http://www.w3.org/1999/xlink" xmlns:svgjs="http://svgjs.com/svgjs" viewBox="0.366 0 20.268 82" opacity=".102" x="1198" y="581"><svg xmlns="http://www.w3.org/2000/svg" xmlns:xlink="http://www.w3.org/1999/xlink" width="21" height="82" viewBox="0.564 0.662 20.07 81.197"><path paint-order="stroke fill markers" fill-rule="evenodd" d="M19.14 67.735c-2.29 7.254-8.537 13.792-16.143 14.105a2.815 2.815 0 0 1-1.61-.29C.435 80.955.412 79.559.8 78.498c.39-1.06 1.068-2.014 1.175-3.127a2.044 2.044 0 0 0-.046-.68c4.036-5.69 7.95-11.442 9.498-18.178a9.72 9.72 0 0 0 .282-3.562c-.206-1.373-.9-2.617-1.281-3.944-.672-2.35-.359-4.837-.168-7.27a67.13 67.13 0 0 0-5.218-31.345C4.012 8.012 2.837 5.6 2.479 3.06A4.417 4.417 0 0 1 4.989.917C7.49.078 9.13 1.383 9.497 3.755c.61 4.035.26 8.155 1.06 12.205a57.213 57.213 0 0 0 3.35 11.054c1.35 3.22 2.99 6.332 4.027 9.665a53.243 53.243 0 0 1 1.67 8.392c1.046 7.567 1.847 15.409-.465 22.664z"/></svg></svg><svg width="86" height="26" xmlns="http://www.w3.org/2000/svg" xmlns:xlink="http://www.w3.org/1999/xlink" xmlns:svgjs="http://svgjs.com/svgjs" viewBox="0 0.19 86 25.621" opacity=".102" x="1196" y="673"><svg xmlns="http://www.w3.org/2000/svg" xmlns:xlink="http://www.w3.org/1999/xlink" width="86" height="26" viewBox="0.301 0.241 85.338 25.424"><path paint-order="stroke fill markers" fill-rule="evenodd" d="M85.577 21.551a5.11 5.11 0 0 1-3.387 3.501c-1.627.499-3.33.695-5.028.58h-1.525a33.237 33.237 0 0 0-22.123-5.34c-2.487.298-4.973.878-7.46.649-5.027-.458-9.101-4.074-13.579-6.385A28.515 28.515 0 0 0 .87 18.843l-.434.381a6.508 6.508 0 0 1-.122-.923c-.138-2.754.846-4.34 3.104-5.828 6.698-4.424 14.868-7.46 22.512-9.741A55.681 55.681 0 0 1 38.44.306c6.012-.351 12.015.763 17.866 2.174 7.194 1.777 14.311 4.127 20.689 7.888 3.104 1.853 6.156 4.142 7.842 7.392a5.798 5.798 0 0 1 .74 3.791z"/></svg></svg><svg width="112" height="160" xmlns="http://www.w3.org/2000/svg" xmlns:xlink="http://www.w3.org/1999/xlink" xmlns:svgjs="http://svgjs.com/svgjs" viewBox="0.386 0 111.227 160" fill="#6c63ff" x="1189" y="550"><svg xmlns="http://www.w3.org/2000/svg" xmlns:xlink="http://www.w3.org/1999/xlink" width="112" height="160" viewBox="0.501 0.11 110.7 159.241"><path paint-order="stroke fill markers" fill-rule="evenodd" d="M109.687 60.99l-.107.274c-1.708 4.432-4.851 8.177-6.865 12.495-2.54 5.47-3.166 11.603-3.73 17.614-.489 5.15-.97 10.33-.58 15.493.976 12.725 7.193 24.793 8.856 37.273.41 2.882.515 5.8.313 8.704-.137 1.839-.473 3.814-1.693 5.172-1.221 1.358-3.593 1.892-4.906.588.588-1.122 1.183-2.235 1.778-3.357-3.486-2.708-8.735-.763-12.808-2.456-1.793-.763-3.227-2.136-4.73-3.364a33.168 33.168 0 0 0-24.708-7.217c-2.487.305-4.974.885-7.461.656-5.027-.465-9.1-4.073-13.579-6.385a28.53 28.53 0 0 0-31.604 4.28c-1.068.991-2.502 2.15-3.814 1.525a3.174 3.174 0 0 1-1.183-1.289c-4.996-8.536-1.32-19.544 4.02-27.859 5.34-8.315 12.412-15.981 14.609-25.616a9.559 9.559 0 0 0 .282-3.563c-.206-1.373-.9-2.616-1.281-3.944-.672-2.35-.359-4.836-.168-7.27a67.13 67.13 0 0 0-5.203-31.352c-1.22-2.846-2.67-5.73-2.67-8.819 0-4.867 3.486-8.902 6.37-12.816 3.318-4.5 6.103-9.482 10.306-13.181C33.113 3.059 38.88.908 43.808 2.693A91.502 91.502 0 0 1 69.409.198c2.975.137 6.05.45 8.658 1.892 2.792 1.526 4.799 4.241 7.545 5.866 2.006 1.198 4.318 1.762 6.5 2.602a26.86 26.86 0 0 1 14.005 12.525c3.051 5.912 3.814 12.71 4.486 19.33.64 6.233 1.25 12.71-.916 18.576z"/></svg></svg><svg width="29" height="124" xmlns="http://www.w3.org/2000/svg" xmlns:xlink="http://www.w3.org/1999/xlink" xmlns:svgjs="http://svgjs.com/svgjs" viewBox="0.389 0 28.222 124" opacity=".102" x="1270" y="571"><svg xmlns="http://www.w3.org/2000/svg" xmlns:xlink="http://www.w3.org/1999/xlink" width="29" height="124" viewBox="0.772 0.824 27.838 122.315"><path paint-order="stroke fill markers" fill-rule="evenodd" d="M17.405 85.867c.976 12.724 7.193 24.792 8.856 37.272-3.326-2.815-7.956-5.645-8.574-8.918-.687-3.54-2.884-8.177-3.25-11.755-.366-3.578 2.144-7.949-.488-10.405-1.282-1.198 2.128-.862.877-2.09-2.815-2.739-3.509-6.958-3.684-10.87-.298-6.927.58-13.93-.694-20.743-.763-4.203-2.358-8.208-3.632-12.289-1.48-4.752-2.548-9.62-3.615-14.494A101.543 101.543 0 0 1 .912 18.408C.584 14.594.737 10.551 2.438 7.072c1.7-3.478 5.141-6.3 9.001-6.247 12.908.168 10.68 17.667 13.518 25.753 1.136 3.22 2.67 6.332 3.288 9.689.225 1.315.348 2.647.366 3.981-1.709 4.433-4.852 8.178-6.866 12.496-2.54 5.47-3.166 11.603-3.73 17.614-.519 5.164-1 10.344-.61 15.509z"/></svg></svg><svg width="44" height="135" xmlns="http://www.w3.org/2000/svg" xmlns:xlink="http://www.w3.org/1999/xlink" xmlns:svgjs="http://svgjs.com/svgjs" viewBox="0.171 0 43.657 135" fill="#6c63ff" x="1271" y="571"><svg xmlns="http://www.w3.org/2000/svg" xmlns:xlink="http://www.w3.org/1999/xlink" width="44" height="135" viewBox="0.648 0.557 43.226 133.667"><path paint-order="stroke fill markers" fill-rule="evenodd" d="M24.796 26.38c1.137 3.22 2.67 6.332 3.288 9.688 1.03 5.622-.565 11.595 1.167 17.042.45 1.163.828 2.352 1.129 3.563.298 1.731-.046 3.501-.046 5.263 0 2.838.893 5.584 1.686 8.308a148.477 148.477 0 0 1 5.302 28.347c.126 2.579.533 5.137 1.213 7.628.32.844.595 1.705.824 2.579.205 1.165.253 2.353.145 3.532-.206 3.738-.626 7.49-.206 11.213.42 3.723 1.777 7.5 4.577 9.994-2.502.541-5.15 1.083-7.59.282-3.433-1.121-5.493-4.577-7.24-7.72-2.212-4.013-10.619-7.629-11.488-12.137-.68-3.532-2.876-8.17-3.243-11.755-.366-3.586 2.136-7.941-.495-10.398-1.274-1.198 2.136-.87.877-2.09-2.807-2.739-3.502-6.957-3.677-10.878-.298-6.92.572-13.922-.694-20.734-.763-4.204-2.357-8.208-3.631-12.297-1.48-4.745-2.548-9.612-3.616-14.494A100.486 100.486 0 0 1 .789 18.149C.461 14.335.606 10.284 2.315 6.805 4.024 3.327 7.465.512 11.317.558 24.17.787 21.958 18.294 24.796 26.38z"/></svg></svg><svg width="9" height="9" xmlns="http://www.w3.org/2000/svg" xmlns:xlink="http://www.w3.org/1999/xlink" xmlns:svgjs="http://svgjs.com/svgjs" viewBox="0.007 0 8.986 9" opacity=".102" x="1255" y="595"><svg xmlns="http://www.w3.org/2000/svg" xmlns:xlink="http://www.w3.org/1999/xlink" width="9" height="9" viewBox="0.316 0.225 8.273 8.285"><path paint-order="stroke fill markers" fill-rule="evenodd" d="M4.012 5.363c1.205 1.411 2.753 2.96 4.577 2.685a.992.992 0 0 1-1.35.32 2.899 2.899 0 0 1-1.015-1.167L3.614 2.8C3.273 2.227.908-1.106.328.816c-.229.816 3.097 3.86 3.685 4.547z"/></svg></svg><svg width="15" height="9" xmlns="http://www.w3.org/2000/svg" xmlns:xlink="http://www.w3.org/1999/xlink" xmlns:svgjs="http://svgjs.com/svgjs" viewBox="0 0.435 15 8.129" opacity=".102" x="1243" y="603"><svg xmlns="http://www.w3.org/2000/svg" xmlns:xlink="http://www.w3.org/1999/xlink" width="15" height="9" viewBox="0.404 0.642 14.204 7.698"><path paint-order="stroke fill markers" fill-rule="evenodd" d="M14.608 8.34a5.813 5.813 0 0 0-1.701-3.814 9.536 9.536 0 0 0-3.15-1.9C6.895 1.452 3.508.506.403.658 1.533 2.306 5.156 3.29 6.972 4.221c2.573 1.327 5.119 2.7 7.636 4.119z"/></svg></svg><svg width="30" height="53" xmlns="http://www.w3.org/2000/svg" xmlns:xlink="http://www.w3.org/1999/xlink" xmlns:svgjs="http://svgjs.com/svgjs" viewBox="0.187 0 29.626 53" opacity=".102" x="1238" y="631"><svg xmlns="http://www.w3.org/2000/svg" xmlns:xlink="http://www.w3.org/1999/xlink" width="30" height="53" viewBox="0.838 0.231 28.987 51.857"><path paint-order="stroke fill markers" fill-rule="evenodd" d="M27.732 11.586c-.526 3.906-3.722 6.866-6.957 9.154-3.234 2.289-6.865 4.257-8.978 7.568-1.465 2.288-2.121 4.943-3.365 7.33-1.373 2.632-3.425 4.845-5.065 7.316C1.727 45.426.445 48.378.95 51.307a.984.984 0 0 0 .35.702c.32.135.687.095.97-.107 3.326-1.739 4.638-5.713 6.034-9.154a105.762 105.762 0 0 1 4.943-10.16c.824-1.527 1.732-3.19 3.265-4.036a28.638 28.638 0 0 1 3.22-1.122 10.827 10.827 0 0 0 3.973-3.12A26.196 26.196 0 0 0 29.807 6.53c-.046-1.366-.122-7.942-2.174-5.913-2.052 2.03.45 8.315.1 10.97z"/></svg></svg><svg width="100" height="176" xmlns="http://www.w3.org/2000/svg" xmlns:xlink="http://www.w3.org/1999/xlink" xmlns:svgjs="http://svgjs.com/svgjs" viewBox="0.141 0 99.719 176" fill="#a26565" x="1195" y="487"><svg xmlns="http://www.w3.org/2000/svg" xmlns:xlink="http://www.w3.org/1999/xlink" width="100" height="176" viewBox="0.48 0.262 99.497 175.608"><path paint-order="stroke fill markers" fill-rule="evenodd" d="M75.76 5.787c6.56 2.86 12.205 9.154 11.999 16.286-.175 7.491-6.446 14.548-4.287 21.726 1.25 4.165 5.02 6.957 8.002 10.123 11.359 12.022 11.336 33.008-.06 45.008-4.364 4.577-9.971 7.834-14.587 12.205-16.271 15.333-16.965 41.857-8.253 62.447a101.564 101.564 0 0 1-20.307 2.288c-3.197 0-7.11-.541-8.27-3.524-1.068-2.754.763-6.477-1.342-8.513-.992-.954-2.48-1.084-3.815-1.305-8.59-1.388-15.638-8.246-18.857-16.325-3.22-8.078-3.051-17.171-1.205-25.67 1.312-6.14 3.364-12.9.32-18.392C11.284 95.231.314 92.316.482 84.413c.137-6.477 7.773-9.627 12.106-14.44 7.995-8.865 4.188-22.62 4.173-34.565 0-10.512 3.677-21.36 11.504-28.363C39.905-3.459 62.325-.049 75.76 5.787z"/></svg></svg><svg width="100" height="156" xmlns="http://www.w3.org/2000/svg" xmlns:xlink="http://www.w3.org/1999/xlink" xmlns:svgjs="http://svgjs.com/svgjs" viewBox="1195 507 100 156" x="1195" y="507"><svg width="18" height="31" xmlns="http://www.w3.org/2000/svg" xmlns:xlink="http://www.w3.org/1999/xlink" xmlns:svgjs="http://svgjs.com/svgjs" viewBox="0.135 0 17.729 31" x="1195" y="566"><svg xmlns="http://www.w3.org/2000/svg" xmlns:xlink="http://www.w3.org/1999/xlink" width="18" height="31" viewBox="0.511 0.332 17.421 30.46"><path paint-order="stroke fill markers" fill-rule="evenodd" d="M16.35 15.307C13 9.265 4.204 6.275 2.16.332A8.46 8.46 0 0 0 .513 5.108C.345 13.01 11.299 15.925 15.129 22.844a14.41 14.41 0 0 1 1.525 7.949c1.206-5.31 2.266-10.848-.305-15.486z"/></svg></svg><svg width="4" height="15" xmlns="http://www.w3.org/2000/svg" xmlns:xlink="http://www.w3.org/1999/xlink" xmlns:svgjs="http://svgjs.com/svgjs" viewBox="0.049 0 3.903 15" x="1279" y="507"><svg xmlns="http://www.w3.org/2000/svg" xmlns:xlink="http://www.w3.org/1999/xlink" width="4" height="15" viewBox="0.291 0.464 3.527 13.556"><path paint-order="stroke fill markers" fill-rule="evenodd" d="M.35 14.02C1.721 10.013 3.712 5.97 3.811 1.813c.014-.45.002-.901-.038-1.35C2.241 5.056-.109 9.51.35 14.019z"/></svg></svg><svg width="3" height="32" xmlns="http://www.w3.org/2000/svg" xmlns:xlink="http://www.w3.org/1999/xlink" xmlns:svgjs="http://svgjs.com/svgjs" viewBox="0.398 0 2.204 32" x="1211" y="511"><svg xmlns="http://www.w3.org/2000/svg" xmlns:xlink="http://www.w3.org/1999/xlink" width="3" height="32" viewBox="0.784 0.232 2.144 31.124"><path paint-order="stroke fill markers" fill-rule="evenodd" d="M1.661 31.356c2.624-8.292.359-18.575.351-27.775 0-1.114.046-2.235.13-3.349A44.05 44.05 0 0 0 .784 11.11c.015 6.568 1.167 13.693.877 20.246z"/></svg></svg><svg width="36" height="55" xmlns="http://www.w3.org/2000/svg" xmlns:xlink="http://www.w3.org/1999/xlink" xmlns:svgjs="http://svgjs.com/svgjs" viewBox="0.289 0 35.422 55" x="1259" y="565"><svg xmlns="http://www.w3.org/2000/svg" xmlns:xlink="http://www.w3.org/1999/xlink" width="36" height="55" viewBox="0.569 0.013 35.404 54.971"><path paint-order="stroke fill markers" fill-rule="evenodd" d="M28.687 13.126c-4.363 4.577-9.97 7.834-14.586 12.205C5.863 33.09 1.63 43.716.57 54.983 2.537 46.592 6.51 38.864 12.88 32.861c4.577-4.349 10.222-7.59 14.585-12.206A32.413 32.413 0 0 0 35.972.013a30.977 30.977 0 0 1-7.285 13.113z"/></svg></svg><svg width="56" height="57" xmlns="http://www.w3.org/2000/svg" xmlns:xlink="http://www.w3.org/1999/xlink" xmlns:svgjs="http://svgjs.com/svgjs" viewBox="0.018 0 55.965 57" x="1208" y="606"><svg xmlns="http://www.w3.org/2000/svg" xmlns:xlink="http://www.w3.org/1999/xlink" width="56" height="57" viewBox="0.506 0.481 55.09 56.109"><path paint-order="stroke fill markers" fill-rule="evenodd" d="M36.54 49.043c-3.196 0-7.11-.549-8.269-3.532-1.068-2.746.763-6.469-1.342-8.513-.992-.954-2.487-1.083-3.815-1.304-8.581-1.381-15.63-8.247-18.85-16.318C1.893 13.411 1.382 6.904 1.977.481c-.061.251-.114.503-.168.763C-.007 9.742-.198 18.842 3.014 26.92c3.211 8.078 10.267 14.936 18.85 16.317 1.357.221 2.852.359 3.814 1.305 2.128 2.044.274 5.767 1.342 8.513 1.16 2.983 5.073 3.57 8.27 3.532a101.631 101.631 0 0 0 20.306-2.289 68.203 68.203 0 0 1-2.464-6.812 101.27 101.27 0 0 1-16.591 1.556z"/></svg></svg></svg><svg width="4" height="7" xmlns="http://www.w3.org/2000/svg" xmlns:xlink="http://www.w3.org/1999/xlink" xmlns:svgjs="http://svgjs.com/svgjs" viewBox="0.038 0 3.924 7" opacity=".102" x="1269" y="616"><svg xmlns="http://www.w3.org/2000/svg" xmlns:xlink="http://www.w3.org/1999/xlink" width="4" height="7" viewBox="0.502 0.436 3.125 5.575"><path paint-order="stroke fill markers" fill-rule="evenodd" d="M.524 5.776c1.884 1.419 3.928-3.99 2.761-5.34C2.972.786.234 5.577.524 5.776z"/></svg></svg><svg width="8" height="9" xmlns="http://www.w3.org/2000/svg" xmlns:xlink="http://www.w3.org/1999/xlink" xmlns:svgjs="http://svgjs.com/svgjs" viewBox="0.211 0 7.578 9" opacity=".102" x="1277" y="711"><svg xmlns="http://www.w3.org/2000/svg" xmlns:xlink="http://www.w3.org/1999/xlink" width="8" height="9" viewBox="0.556 0.058 7.26 8.622"><path paint-order="stroke fill markers" fill-rule="evenodd" d="M.556 8.679c2.22-.763 4.577-1.526 6.027-3.357C7.78 3.85 8.765-1.993 6.232.807 4.081 3.209 3.066 6.375.556 8.679z"/></svg></svg><svg width="7" height="14" xmlns="http://www.w3.org/2000/svg" xmlns:xlink="http://www.w3.org/1999/xlink" xmlns:svgjs="http://svgjs.com/svgjs" viewBox="0.446 0 6.108 14" opacity=".102" x="1297" y="705"><svg xmlns="http://www.w3.org/2000/svg" xmlns:xlink="http://www.w3.org/1999/xlink" width="7" height="14" viewBox="0.291 0.292 5.883 13.484"><path paint-order="stroke fill markers" fill-rule="evenodd" d="M3.16 8.553c-.267 1.8-.763 3.67-2.037 4.967-.237.244-.763.396-.832.068a19.288 19.288 0 0 0 3.936-2.777C6.806 8.256 7.157 1.962 3.228.292c-.038 2.761.351 5.454-.069 8.261z"/></svg></svg><svg width="33" height="21" xmlns="http://www.w3.org/2000/svg" xmlns:xlink="http://www.w3.org/1999/xlink" xmlns:svgjs="http://svgjs.com/svgjs" viewBox="0 0.043 33 20.914" fill="#454b69" x="1295" y="694"><svg xmlns="http://www.w3.org/2000/svg" xmlns:xlink="http://www.w3.org/1999/xlink" width="33" height="21" viewBox="0.729 0.518 31.565 20.004"><path paint-order="stroke fill markers" fill-rule="evenodd" d="M32.294 8.21S10.644-.296 2.817.582c-7.826.877 8.865 13.212 8.865 13.212l9.978 6.728s6.102-2.288 6.507-2.464c.404-.175 4.127-9.848 4.127-9.848z"/></svg></svg><svg width="158" height="149" xmlns="http://www.w3.org/2000/svg" xmlns:xlink="http://www.w3.org/1999/xlink" xmlns:svgjs="http://svgjs.com/svgjs" viewBox="0 0.16 158 148.68" fill="#565661" x="1178" y="607"><svg xmlns="http://www.w3.org/2000/svg" xmlns:xlink="http://www.w3.org/1999/xlink" width="158" height="149" viewBox="0.333 0.372 157.292 148.014"><path paint-order="stroke fill markers" fill-rule="evenodd" d="M.333 3.959s16.264-9.43 37.73 2.288c21.467 11.717 25.045 80.67 25.045 80.67s-8.78 70.251 25.074 54.62c0 0 61.79-19.185 67.977-14.959 0 0 5.859 0-5.85 2.601-11.71 2.602-56.947 16.936-56.947 16.936s-14.624 5.11-20.818 0c-6.194-5.112-23.747.656-26.028-34.481a611.038 611.038 0 0 0-8.132-66.032L32.35 27.714.333 3.959z"/></svg></svg><svg width="81" height="146" xmlns="http://www.w3.org/2000/svg" xmlns:xlink="http://www.w3.org/1999/xlink" xmlns:svgjs="http://svgjs.com/svgjs" viewBox="0 0.237 81 145.525" fill="#fff" x="1170" y="608"><svg xmlns="http://www.w3.org/2000/svg" xmlns:xlink="http://www.w3.org/1999/xlink" width="81" height="146" viewBox="0.132 0.68 80.389 144.427"><path paint-order="stroke fill markers" fill-rule="evenodd" d="M6.38 111.603s7.156-71.235-4.577-96.935C-8.404-7.729 31.066 2.745 41.364 5.796a7.498 7.498 0 0 1 3.952 2.823c6.103 8.582 27.996 42.979 21.543 89 0 0-2.602 40.988 13.662 47.488L30.41 128.965c-4.066-1.312-8.193-2.403-12.358-3.349-5.31-1.205-13.96-4.63-11.672-14.013z"/></svg></svg><svg width="12" height="95" xmlns="http://www.w3.org/2000/svg" xmlns:xlink="http://www.w3.org/1999/xlink" xmlns:svgjs="http://svgjs.com/svgjs" viewBox="0.433 0 11.135 95" fill="#565661" x="1532" y="758"><svg xmlns="http://www.w3.org/2000/svg" xmlns:xlink="http://www.w3.org/1999/xlink" width="12" height="95" viewBox="0.789 0.218 11.061 94.371"><path paint-order="stroke fill markers" fill-rule="evenodd" d="M.789 94.59h6.507L11.56 7.136l.29-4.974L6.32.218l-.367 5.286L.79 94.59z"/></svg></svg><svg width="7" height="8" xmlns="http://www.w3.org/2000/svg" xmlns:xlink="http://www.w3.org/1999/xlink" xmlns:svgjs="http://svgjs.com/svgjs" viewBox="0.091 0 6.818 8" opacity=".102" x="1537" y="758"><svg xmlns="http://www.w3.org/2000/svg" xmlns:xlink="http://www.w3.org/1999/xlink" width="7" height="8" viewBox="0.953 0.218 5.897 6.919"><path paint-order="stroke fill markers" fill-rule="evenodd" d="M.953 5.504L6.56 7.137l.29-4.974L1.32.218.952 5.504z"/></svg></svg><svg width="42" height="44" xmlns="http://www.w3.org/2000/svg" xmlns:xlink="http://www.w3.org/1999/xlink" xmlns:svgjs="http://svgjs.com/svgjs" viewBox="0 0.099 42 43.802" fill="#a26565" x="1437" y="783"><svg xmlns="http://www.w3.org/2000/svg" xmlns:xlink="http://www.w3.org/1999/xlink" width="42" height="44" viewBox="0.424 0.459 41.207 42.975"><path paint-order="stroke fill markers" fill-rule="evenodd" d="M41.459 35.818a14.668 14.668 0 0 1-.916 3.494 6.172 6.172 0 0 1-2.784 3.479 7.354 7.354 0 0 1-2.815.556c-3.593.214-7.392.16-10.481-1.67a19.073 19.073 0 0 1-3.593-2.998A163.92 163.92 0 0 1 2.012 16.25c-.938-1.35-1.907-2.944-1.487-4.577A71.104 71.104 0 0 0 20.946 2.33 9.858 9.858 0 0 1 23.814.804 15.581 15.581 0 0 1 29.2.605c1.732.283 1.808.336 2.472 2.289 1.098 3.303.915 6.865 2.15 10.169a31.503 31.503 0 0 0 2.854 5.218c3.189 5.332 5.637 11.625 4.783 17.537z"/></svg></svg><svg width="42" height="35" xmlns="http://www.w3.org/2000/svg" xmlns:xlink="http://www.w3.org/1999/xlink" xmlns:svgjs="http://svgjs.com/svgjs" viewBox="0 0.052 42 34.896" opacity=".102" x="1437" y="792"><svg xmlns="http://www.w3.org/2000/svg" xmlns:xlink="http://www.w3.org/1999/xlink" width="42" height="35" viewBox="0.424 0.34 41.035 34.094"><path paint-order="stroke fill markers" fill-rule="evenodd" d="M41.459 26.818a14.668 14.668 0 0 1-.916 3.494 6.172 6.172 0 0 1-2.784 3.479 7.354 7.354 0 0 1-2.815.556c-3.593.214-7.392.16-10.481-1.67a19.073 19.073 0 0 1-3.593-2.998A163.92 163.92 0 0 1 2.012 7.25C1.074 5.901.105 4.307.525 2.674A70.881 70.881 0 0 0 7.512.34l.115.084c2.342 1.67 4.043 4.066 5.698 6.415l5.34 7.514a22.126 22.126 0 0 0 3.349 4.043 22.415 22.415 0 0 0 5.18 3.113c2.51 1.213 5.02 2.426 7.628 3.402 1.686.679 4.54.946 6.637 1.907z"/></svg></svg><svg width="62" height="87" xmlns="http://www.w3.org/2000/svg" xmlns:xlink="http://www.w3.org/1999/xlink" xmlns:svgjs="http://svgjs.com/svgjs" viewBox="0.057 0 61.885 87" fill="#454b69" x="1459" y="729"><svg xmlns="http://www.w3.org/2000/svg" xmlns:xlink="http://www.w3.org/1999/xlink" width="62" height="87" viewBox="0.555 0.119 61.264 86.126"><path paint-order="stroke fill markers" fill-rule="evenodd" d="M24.387 8.354a22.97 22.97 0 0 1-1.907 3.639A155.746 155.746 0 0 0 6.216 50.05c-1.053-.236-1.648 1.198-1.64 2.289.007 1.09 0 2.464-1.007 2.86-.298.115-.633.115-.923.244-.641.29-.824 1.107-.916 1.808l-.9 6.607c-.313 2.288-.587 4.767.534 6.789a10.854 10.854 0 0 0 2.952 3.051l14.891 11.748c.61.48 1.366.992 2.098.725 1.67-.61.19-3.6 1.526-4.814.885-.831 2.288-.206 3.516-.305 1.602-.122 2.815-1.594 3.22-3.143.283-1.577.312-3.19.083-4.775a4.331 4.331 0 0 1 .245-2.144 5.205 5.205 0 0 1 1.823-1.747 19.574 19.574 0 0 0 8.017-16.508 9.152 9.152 0 0 1 .107-2.921 7.7 7.7 0 0 1 1.38-2.411c5.41-7.316 9.918-15.257 14.396-23.183 2.578-4.577 5.202-9.223 6.102-14.38a1.335 1.335 0 0 0-1.098-1.83 51.894 51.894 0 0 0-6.82-1.633C46.792 4.96 40.025 2.77 33.205.665c-6.82-2.106-6.766 2.181-8.818 7.69z"/></svg></svg><svg width="190" height="166" xmlns="http://www.w3.org/2000/svg" xmlns:xlink="http://www.w3.org/1999/xlink" xmlns:svgjs="http://svgjs.com/svgjs" viewBox="0 0.349 190 165.302" fill="#565661" x="1451" y="734"><svg xmlns="http://www.w3.org/2000/svg" xmlns:xlink="http://www.w3.org/1999/xlink" width="190" height="166" viewBox="0.142 0.928 189.315 164.706"><path paint-order="stroke fill markers" fill-rule="evenodd" d="M.142 137.088l10.74 1.297 49.44-112.222 13.335-.976 23.427 6.835 4.546 133.612h10.733L108.137 27.14l25.7.656L179.7 141.963h9.756L141.222 8.534l-1.854-5.142L67.478.928l-17.92 10.047-.228.58L.142 137.088z"/></svg></svg><svg width="93" height="24" xmlns="http://www.w3.org/2000/svg" xmlns:xlink="http://www.w3.org/1999/xlink" xmlns:svgjs="http://svgjs.com/svgjs" viewBox="0 0.549 93 22.901" opacity=".102" x="1500" y="734"><svg xmlns="http://www.w3.org/2000/svg" xmlns:xlink="http://www.w3.org/1999/xlink" width="93" height="24" viewBox="0.33 0.928 91.892 22.628"><path paint-order="stroke fill markers" fill-rule="evenodd" d="M.33 11.555c15.447 4.653 31.482 9.734 31.482 9.734s14.624 5.103 20.818 0a9.357 9.357 0 0 1 2.586-1.427 12.742 12.742 0 0 1-2.586 1.427L92.222 8.526 90.39 3.392 18.501.928.58 10.975l-.251.58z"/></svg></svg><svg width="105" height="37" xmlns="http://www.w3.org/2000/svg" xmlns:xlink="http://www.w3.org/1999/xlink" xmlns:svgjs="http://svgjs.com/svgjs" viewBox="0 0.392 105 36.216" fill="#fff" x="1469" y="716"><svg xmlns="http://www.w3.org/2000/svg" xmlns:xlink="http://www.w3.org/1999/xlink" width="105" height="37" viewBox="0.038 0.902 104.419 36.016"><path paint-order="stroke fill markers" fill-rule="evenodd" d="M104.448 7.41L75.178.901S5.24 13.916.038 19.12c0 0 55.947 11.382 62.126 15.257 6.179 3.875 42.94 8.162 42.284-26.967z"/></svg></svg><svg width="56" height="37" xmlns="http://www.w3.org/2000/svg" xmlns:xlink="http://www.w3.org/1999/xlink" xmlns:svgjs="http://svgjs.com/svgjs" viewBox="0 0.51 56 35.981" fill="#a26565" x="1410" y="796"><svg xmlns="http://www.w3.org/2000/svg" xmlns:xlink="http://www.w3.org/1999/xlink" width="56" height="37" viewBox="0.406 0.878 55.191 35.461"><path paint-order="stroke fill markers" fill-rule="evenodd" d="M54.835 31.98c-1.763 3.357-6.103 4.303-9.917 4.356a41.874 41.874 0 0 1-15.501-2.77c-2.823-1.082-5.531-2.478-8.445-3.272-4.34-1.19-9.154-1.09-12.968-3.478a15.257 15.257 0 0 1-4.875-5.287 18.781 18.781 0 0 1-.633-1.16C.673 16.823-.174 12.696.84 8.867 1.855 5.036 5.54.818 9.811.879c5.073.076 11.123 2.48 16.02 3.723 6.103 1.525 12.206 3.287 17.599 6.514 4.516 2.716 8.506 6.614 10.634 11.374.41.918.746 1.867 1.007 2.838.664 2.197.816 4.646-.236 6.652z"/></svg></svg><svg width="54" height="17" xmlns="http://www.w3.org/2000/svg" xmlns:xlink="http://www.w3.org/1999/xlink" xmlns:svgjs="http://svgjs.com/svgjs" viewBox="0 0.381 54 16.239" opacity=".102" x="1412" y="816"><svg xmlns="http://www.w3.org/2000/svg" xmlns:xlink="http://www.w3.org/1999/xlink" width="54" height="17" viewBox="0.496 0.37 53.105 15.969"><path paint-order="stroke fill markers" fill-rule="evenodd" d="M52.834 11.98c-1.762 3.357-6.102 4.302-9.917 4.356a41.87 41.87 0 0 1-15.5-2.77c-2.823-1.083-5.531-2.478-8.445-3.272-4.34-1.19-9.154-1.09-12.969-3.478A15.257 15.257 0 0 1 1.13 1.529 18.828 18.828 0 0 1 .496.37c.763.062 1.464.138 1.846.176 4.684.45 9.154 2.159 13.624 3.448a76.528 76.528 0 0 0 19.071 2.975c4.577.13 9.353-.206 13.35-2.441a35.053 35.053 0 0 1 3.707-2.037c.41.918.746 1.867 1.007 2.838.634 2.197.786 4.646-.267 6.652z"/></svg></svg><svg width="175" height="142" xmlns="http://www.w3.org/2000/svg" xmlns:xlink="http://www.w3.org/1999/xlink" xmlns:svgjs="http://svgjs.com/svgjs" viewBox="0 0.432 175 141.136" fill="#454b69" x="1393" y="679"><svg xmlns="http://www.w3.org/2000/svg" xmlns:xlink="http://www.w3.org/1999/xlink" width="175" height="142" viewBox="0.781 0.989 174.06 140.378"><path paint-order="stroke fill markers" fill-rule="evenodd" d="M104.614 3.933c-9.917-1.625-20.017-2.022-30.071-2.418l-12.297-.489a5.576 5.576 0 0 0-2.587.313c-.71.457-1.386.967-2.021 1.526-1.236.839-2.815.93-4.302 1.015a214.179 214.179 0 0 0-31.4 4.073c-5.339 1.091-10.885 2.517-14.898 6.202-4.24 3.898-6.102 9.84-6.247 15.593-.145 5.751 1.365 11.404 2.96 16.927a77.12 77.12 0 0 1 3.333 20.49 38.34 38.34 0 0 0 .221 5.775c.355 1.83.895 3.619 1.61 5.34l5.615 14.99c.495 1.312.984 2.616 1.525 3.898.542 1.281 1.06 2.288 1.526 3.493.687 1.648 1.228 3.357 1.77 5.058l3.738 11.74.488 1.526c1.35 4.226 2.73 8.529 5.279 12.16 2.548 3.63 6.492 6.56 10.924 6.781a33.45 33.45 0 0 1 4.287.115c1.215.297 2.394.724 3.517 1.274a26.828 26.828 0 0 0 10.504 2.052c3.318 0 7.003-.923 8.803-3.715.992-1.526 1.251-3.402 1.526-5.203.48-3.616.946-7.392-.282-10.824-.763-2.053-2.045-3.815-2.93-5.836-1.235-2.754-1.64-5.798-2.44-8.704a33.245 33.245 0 0 0-10.147-16.142 159.12 159.12 0 0 1-3.814-20.887 18.382 18.382 0 0 0-.923-4.577c-.892-2.288-2.7-4.142-3.456-6.476-.709-2.167-.495-4.669-1.785-6.538 10.734 2.952 21.36 2.289 32.505 2.113a88.755 88.755 0 0 0 10.68-.61 33.555 33.555 0 0 1 5.004-.534c3.448 0 6.683 1.526 9.848 2.868 8.949 3.814 18.377 6.812 28.096 7.224 10.031.42 19.948-1.937 29.75-4.272 4.31-1.03 8.789-2.143 12.206-4.973 3.418-2.83 5.34-7.934 3.235-11.817-1.602-2.921-4.92-4.356-8.018-5.576-8.574-3.387-17.194-6.69-25.456-10.787-12.617-6.148-22.053-19.88-35.876-22.168z"/></svg></svg><svg width="36" height="51" xmlns="http://www.w3.org/2000/svg" xmlns:xlink="http://www.w3.org/1999/xlink" xmlns:svgjs="http://svgjs.com/svgjs" viewBox="0 0.045 36 50.909" fill="#a1616a" x="1472" y="631"><svg xmlns="http://www.w3.org/2000/svg" xmlns:xlink="http://www.w3.org/1999/xlink" width="36" height="51" viewBox="0.515 0.872 34.825 49.248"><path paint-order="stroke fill markers" fill-rule="evenodd" d="M7.931 17.422c-1.198 2.594-3.211 4.714-4.699 7.155A18.133 18.133 0 0 0 .944 38.042a15.318 15.318 0 0 0 8.582 10.443 21.537 21.537 0 0 0 5.95 1.434c2.685.328 5.546.397 7.918-.9a11.564 11.564 0 0 0 4.219-4.41c2.052-3.432 3.219-7.3 4.287-11.152 1.976-7.11 3.661-14.403 3.417-21.78-.084-2.54-.587-5.4-2.693-6.865a9.054 9.054 0 0 0-3.54-1.16l-10.061-1.8c-1.945-.35-5.34-1.777-7.026-.373-1.686 1.403-1.815 5.553-2.105 7.498-.458 2.876-.74 5.798-1.96 8.445z"/></svg></svg><svg width="25" height="52" xmlns="http://www.w3.org/2000/svg" xmlns:xlink="http://www.w3.org/1999/xlink" xmlns:svgjs="http://svgjs.com/svgjs" viewBox="0.661 0 23.677 52" fill="#a1616a" x="1579" y="610"><svg xmlns="http://www.w3.org/2000/svg" xmlns:xlink="http://www.w3.org/1999/xlink" width="25" height="52" viewBox="0.902 0.274 23.176 50.899"><path paint-order="stroke fill markers" fill-rule="evenodd" d="M23.238 8.915l-2.632 22.062a101.456 101.456 0 0 0-.938 11.87c0 2.212.069 4.668-1.396 6.323a5.767 5.767 0 0 1-2.624 1.58c-3.197.991-6.683.106-9.734-1.26-1.785-.762-3.609-1.868-4.417-3.646a9.06 9.06 0 0 1-.572-3.867c0-13.16 1.243-26.883 8.116-38.097a8.31 8.31 0 0 1 2.418-2.792c1.908-1.22 4.402-.877 6.561-.213 1.327.404 4.913.854 5.76 2.036.846 1.183-.359 4.486-.542 6.004z"/></svg></svg><svg width="56" height="56" xmlns="http://www.w3.org/2000/svg" xmlns:xlink="http://www.w3.org/1999/xlink" xmlns:svgjs="http://svgjs.com/svgjs" fill="#a1616a" x="1504" y="484"><svg xmlns="http://www.w3.org/2000/svg" xmlns:xlink="http://www.w3.org/1999/xlink" width="56" height="56" viewBox="0.952 0.212 54.925 54.925"><path paint-order="stroke fill markers" fill-rule="evenodd" d="M28.415 55.137C13.228 55.137.952 42.86.952 27.675.952 12.488 13.228.212 28.415.212c15.186 0 27.462 12.276 27.462 27.463 0 15.186-12.276 27.462-27.462 27.462z"/></svg></svg><svg width="50" height="41" xmlns="http://www.w3.org/2000/svg" xmlns:xlink="http://www.w3.org/1999/xlink" xmlns:svgjs="http://svgjs.com/svgjs" viewBox="0 0.247 50 40.506" fill="#a1616a" x="1516" y="518"><svg xmlns="http://www.w3.org/2000/svg" xmlns:xlink="http://www.w3.org/1999/xlink" width="50" height="41" viewBox="0.114 0.838 49.21 39.866"><path paint-order="stroke fill markers" fill-rule="evenodd" d="M9.069 34.601a14.166 14.166 0 0 1-1.701 6.103 1224.427 1224.427 0 0 0 41.956-7.14A19.705 19.705 0 0 1 39.59 22.12a32.323 32.323 0 0 1-1.236-8.155A94.284 94.284 0 0 1 38.606.838c-4.882.51-9.505 2.342-14.158 3.913a139.605 139.605 0 0 1-14.258 3.99c-2.327.518-4.669.961-7.018 1.373-2.746.488-4.066.48-2.159 2.891 5.119 6.438 8.773 12.984 8.056 21.596z"/></svg></svg><svg width="128" height="191" xmlns="http://www.w3.org/2000/svg" xmlns:xlink="http://www.w3.org/1999/xlink" xmlns:svgjs="http://svgjs.com/svgjs" viewBox="0.37 0 127.26 191" fill="#6c63ff" x="1479" y="542"><svg xmlns="http://www.w3.org/2000/svg" xmlns:xlink="http://www.w3.org/1999/xlink" width="128" height="191" viewBox="0.939 0.069 126.578 189.977"><path paint-order="stroke fill markers" fill-rule="evenodd" d="M54.506 6.932c-3.624.541-7.423 1.152-10.314 3.395a38.943 38.943 0 0 0-3.135 3.013c-5.745 5.576-13.854 7.819-20.826 11.755a9.155 9.155 0 0 0-2.96 2.327c-.763 1.06-1.152 2.41-1.953 3.463-.93 1.22-2.403 1.983-3.127 3.334-.725 1.35-.565 2.784-.641 4.218-.176 3.15-1.366 6.141-2.289 9.154C5.028 62.017 7.347 78.105.94 91.73a6.201 6.201 0 0 0 3.372 3.525c1.612.58 3.295.943 5.004 1.076l14.196 1.762c2.03.251 4.18.488 6.034-.359a70.894 70.894 0 0 0-3.577 14.44 71.924 71.924 0 0 1-1.602 8.941c-1.953 6.713-6.866 12.305-12.686 16.127a4.691 4.691 0 0 0-1.793 1.655c-.763 1.526.366 3.235 1.167 4.73 2.327 4.333 2.006 9.535 1.976 14.448-.03 4.913.465 10.306 3.898 13.83 2.03 2.083 4.806 3.212 7.506 4.288l22.207 8.871a77.402 77.402 0 0 0 11.305 3.815c5.851 1.335 11.931 1.281 17.935 1.022 3.966-.168 7.928-.422 11.885-.763a9.248 9.248 0 0 0 4.493-1.182 8.39 8.39 0 0 0 2.632-3.57c3.09-6.721 4.127-14.563 8.917-20.193 3.288-3.868 8.392-6.957 8.765-12.015.176-2.517-.946-4.966-.96-7.49 0-3.106 1.624-6.058 1.525-9.155-.206-5.042-4.959-8.887-5.714-13.876-1.922-12.648 4.5-25.28 8.445-37.448.71-2.174 1.625-4.577 3.715-5.508 2.09-.93 5.035-.442 5.782-2.502 1.884-5.172 2.335-11.237 2.09-16.737-.137-3.18-1.266-6.293-1.136-9.482.091-2.243.809-4.424 1-6.66.289-3.379-.603-6.735-1.526-10a15.673 15.673 0 0 0-1.19-3.372 16.02 16.02 0 0 0-1.984-2.724l-3.715-4.416c-1.74-2.068-3.578-4.211-6.103-5.256-.816-2.022-3.425-3.418-5.294-4.532a54.251 54.251 0 0 0-5.828-2.86L80.671.883a8.604 8.604 0 0 0-2.494-.81 8.08 8.08 0 0 0-3.708.764c-6.408 2.54-13.098 5.073-19.963 6.095z"/></svg></svg><svg width="68" height="68" xmlns="http://www.w3.org/2000/svg" xmlns:xlink="http://www.w3.org/1999/xlink" xmlns:svgjs="http://svgjs.com/svgjs" viewBox="0 0.216 68 67.569" fill="#464353" x="1507" y="470"><svg xmlns="http://www.w3.org/2000/svg" xmlns:xlink="http://www.w3.org/1999/xlink" width="68" height="68" viewBox="0.165 0.927 67.336 66.909"><path paint-order="stroke fill markers" fill-rule="evenodd" d="M4.254 46.45c-.809-2.846-2.876-5.302-3.19-8.246-.281-2.617.87-5.15 1.527-7.697.656-2.548.633-5.66-1.389-7.354-.335-.29-.763-.55-.885-.977-.244-.763.527-1.457.763-2.227.435-1.526-1.45-3.212-.763-4.677.39-.8 1.366-1.083 2.22-1.334 3.265-.97 6.576-3.12 7.285-6.454 2.556 1.068 5.28-.938 7.24-2.884 1.96-1.945 4.37-4.165 7.071-3.577l-.602 1.228a19.529 19.529 0 0 1 12.915-.145h-1.282A17.713 17.713 0 0 1 45.379 5.56c-.329 0-.359.489-.23.763 1.069 2.495 3.815 3.815 6.462 4.432 1.594.382 3.326.656 4.493 1.8 1.167 1.145 1.19 3.533-.35 4.082a40.129 40.129 0 0 1 8.856 4.806c.763.557 1.625 1.312 1.525 2.288-.109.49-.267.969-.472 1.427a4.935 4.935 0 0 0 .16 2.441l.847 3.494c.93 3.883 1.662 8.559-1.168 11.374a10.443 10.443 0 0 1-1.838 12.327 5.08 5.08 0 0 1-3.814 6.568c.938 1.465.076 3.555-1.404 4.47-1.48.916-3.341.924-5.065.763-1.724-.16-3.471-.549-5.195-.29-2.51.39-4.966 2.098-7.385 1.336a16.57 16.57 0 0 1-2.586-1.389c-1.693-.908-3.661-1.113-5.538-1.525a25.585 25.585 0 0 1-8.948-3.815 10.488 10.488 0 0 1-4.112-4.577c-1.678-4.241 1.144-9.802-1.823-13.258-1.74-2.014-5.187-2.044-7.133-.32-.968.862-1.098 2.677-2.105 3.326-1.405.355-2.858.479-4.302.366z"/></svg></svg><svg width="12" height="14" xmlns="http://www.w3.org/2000/svg" xmlns:xlink="http://www.w3.org/1999/xlink" xmlns:svgjs="http://svgjs.com/svgjs" viewBox="0 0.153 12 13.694" opacity=".102" x="1470" y="728"><svg xmlns="http://www.w3.org/2000/svg" xmlns:xlink="http://www.w3.org/1999/xlink" width="12" height="14" viewBox="0.165 0.192 11.437 13.052"><path paint-order="stroke fill markers" fill-rule="evenodd" d="M3.935 7.188a12.587 12.587 0 0 1-2.769-3.052A5.69 5.69 0 0 1 .327.192a11.283 11.283 0 0 0 2.968 9.704c1.914 1.96 5.507 3.883 8.307 3.211-.397-2.242-5.89-4.409-7.667-5.92z"/></svg></svg><svg width="158" height="149" xmlns="http://www.w3.org/2000/svg" xmlns:xlink="http://www.w3.org/1999/xlink" xmlns:svgjs="http://svgjs.com/svgjs" viewBox="0 0.16 158 148.68" fill="#565661" x="1467" y="608"><svg xmlns="http://www.w3.org/2000/svg" xmlns:xlink="http://www.w3.org/1999/xlink" width="158" height="149" viewBox="0.549 0.898 157.292 148.014"><path paint-order="stroke fill markers" fill-rule="evenodd" d="M157.841 4.484s-16.264-9.428-37.73 2.289c-21.467 11.717-25.044 80.67-25.044 80.67s8.78 70.25-25.075 54.62c0 0-61.79-19.185-67.977-14.96 0 0-5.859 0 5.85 2.602 11.71 2.601 56.947 16.935 56.947 16.935s14.624 5.111 20.818 0c6.194-5.11 23.748.656 26.028-34.48a611.036 611.036 0 0 1 8.132-66.032l6.034-17.889 32.017-23.755z"/></svg></svg><svg width="82" height="145" xmlns="http://www.w3.org/2000/svg" xmlns:xlink="http://www.w3.org/1999/xlink" xmlns:svgjs="http://svgjs.com/svgjs" viewBox="0.646 0 80.708 145" fill="#fff" x="1552" y="610"><svg xmlns="http://www.w3.org/2000/svg" xmlns:xlink="http://www.w3.org/1999/xlink" width="82" height="145" viewBox="0.653 0.206 80.389 144.427"><path paint-order="stroke fill markers" fill-rule="evenodd" d="M74.794 111.128s-7.156-71.234 4.577-96.934C89.578-8.203 50.108 2.27 39.81 5.322a7.498 7.498 0 0 0-3.952 2.823c-6.102 8.582-27.996 42.978-21.542 89 0 0 2.6 40.988-13.663 47.488l50.111-16.142c4.066-1.312 8.193-2.403 12.358-3.349 5.31-1.205 13.96-4.63 11.672-14.014z"/></svg></svg><svg width="150" height="25" xmlns="http://www.w3.org/2000/svg" xmlns:xlink="http://www.w3.org/1999/xlink" xmlns:svgjs="http://svgjs.com/svgjs" viewBox="0 0.454 150 24.092" fill="#6c63ff" opacity=".102" x="1683" y="835"><svg xmlns="http://www.w3.org/2000/svg" xmlns:xlink="http://www.w3.org/1999/xlink" width="150" height="25" viewBox="0.832 0.769 148.663 23.877"><path paint-order="stroke fill markers" fill-rule="evenodd" d="M75.163 24.646C34.058 24.646.832 19.309.832 12.707S34.058.77 75.163.77c41.105 0 74.332 5.336 74.332 11.938s-33.227 11.939-74.332 11.939z"/></svg></svg><svg width="6" height="109" xmlns="http://www.w3.org/2000/svg" xmlns:xlink="http://www.w3.org/1999/xlink" xmlns:svgjs="http://svgjs.com/svgjs" viewBox="0.579 0 4.841 109" fill="#535461" x="1755" y="618"><svg xmlns="http://www.w3.org/2000/svg" xmlns:xlink="http://www.w3.org/1999/xlink" width="6" height="109" viewBox="0.768 0.999 4.783 107.691"><path paint-order="stroke fill markers" fill-rule="evenodd" d="M.768.999H5.55v107.69H.768V1z"/></svg></svg><svg width="66" height="129" xmlns="http://www.w3.org/2000/svg" xmlns:xlink="http://www.w3.org/1999/xlink" xmlns:svgjs="http://svgjs.com/svgjs" viewBox="0.445 0 65.11 129" fill="#565661" x="1725" y="719"><svg xmlns="http://www.w3.org/2000/svg" xmlns:xlink="http://www.w3.org/1999/xlink" width="66" height="129" viewBox="0.693 0.054 64.936 128.654"><path paint-order="stroke fill markers" fill-rule="evenodd" d="M65.614 7.362l-.297 4.851-.427 6.866-.176 2.853-.42 6.866-.182 2.852-.428 6.866-4.82 77.864c-.459 6.935-6.217 12.326-13.167 12.327H20.622c-6.964-.003-12.724-5.422-13.151-12.373L2.634 38.463l-.42-6.866-.175-2.853-.435-6.865-.175-2.853-.42-6.866-.305-4.852A6.865 6.865 0 0 1 7.524.054h51.278a6.866 6.866 0 0 1 6.812 7.308z"/></svg></svg><svg width="65" height="8" xmlns="http://www.w3.org/2000/svg" xmlns:xlink="http://www.w3.org/1999/xlink" xmlns:svgjs="http://svgjs.com/svgjs" viewBox="0 0.542 65 6.916" fill="#9d9cb5" x="1726" y="731"><svg xmlns="http://www.w3.org/2000/svg" xmlns:xlink="http://www.w3.org/1999/xlink" width="65" height="8" viewBox="0.009 0.213 64.308 6.843"><path paint-order="stroke fill markers" fill-rule="evenodd" d="M64.317.213l-.427 6.843H.436L.01.213h64.308z"/></svg></svg><svg width="64" height="8" xmlns="http://www.w3.org/2000/svg" xmlns:xlink="http://www.w3.org/1999/xlink" xmlns:svgjs="http://svgjs.com/svgjs" viewBox="0 0.526 64 6.948" fill="#9d9cb5" x="1726" y="740"><svg xmlns="http://www.w3.org/2000/svg" xmlns:xlink="http://www.w3.org/1999/xlink" width="64" height="8" viewBox="0.612 0.917 63.102 6.85"><path paint-order="stroke fill markers" fill-rule="evenodd" d="M63.714.917l-.42 6.85H1.04L.612.917h63.102z"/></svg></svg><svg width="63" height="8" xmlns="http://www.w3.org/2000/svg" xmlns:xlink="http://www.w3.org/1999/xlink" xmlns:svgjs="http://svgjs.com/svgjs" viewBox="0 0.518 63 6.965" fill="#9d9cb5" x="1727" y="750"><svg xmlns="http://www.w3.org/2000/svg" xmlns:xlink="http://www.w3.org/1999/xlink" width="63" height="8" viewBox="0.215 0.62 61.897 6.843"><path paint-order="stroke fill markers" fill-rule="evenodd" d="M62.112.62l-.427 6.843H.642L.215.62h61.897z"/></svg></svg><svg width="102" height="74" xmlns="http://www.w3.org/2000/svg" xmlns:xlink="http://www.w3.org/1999/xlink" xmlns:svgjs="http://svgjs.com/svgjs" viewBox="0 0.11 102 73.779" fill="#6c63ff" x="1657" y="638"><svg xmlns="http://www.w3.org/2000/svg" xmlns:xlink="http://www.w3.org/1999/xlink" width="102" height="74" viewBox="0.277 0.062 100.886 72.974"><path paint-order="stroke fill markers" fill-rule="evenodd" d="M61.701 21.361c27.86 20.154 39.462 51.675 39.462 51.675S67.598 71.884 39.731 51.73C11.865 31.576.277.062.277.062S33.85 1.214 61.701 21.361z"/></svg></svg><svg width="102" height="74" xmlns="http://www.w3.org/2000/svg" xmlns:xlink="http://www.w3.org/1999/xlink" xmlns:svgjs="http://svgjs.com/svgjs" viewBox="0 0.11 102 73.779" fill="none" stroke-miterlimit="100" stroke="#535461" stroke-width="2" x="1657" y="638"><svg xmlns="http://www.w3.org/2000/svg" xmlns:xlink="http://www.w3.org/1999/xlink" width="102" height="74" viewBox="0.277 0.062 100.886 72.974"><path paint-order="stroke fill markers" d="M.277.062S35.117 19.4 46.3 35.412c11.184 16.013 54.864 37.624 54.864 37.624L.277.062"/></svg></svg><svg width="56" height="40" xmlns="http://www.w3.org/2000/svg" xmlns:xlink="http://www.w3.org/1999/xlink" xmlns:svgjs="http://svgjs.com/svgjs" viewBox="0.372 0 55.256 40" fill="#6c63ff" x="1703" y="607"><svg xmlns="http://www.w3.org/2000/svg" xmlns:xlink="http://www.w3.org/1999/xlink" width="56" height="40" viewBox="0.292 0.167 54.871 39.721"><path paint-order="stroke fill markers" fill-rule="evenodd" d="M33.682 11.762C48.847 22.725 55.163 39.89 55.163 39.89s-18.308-.634-33.435-11.596C6.6 17.331.292.167.292.167s18.232.626 33.39 11.595z"/></svg></svg><svg width="56" height="40" xmlns="http://www.w3.org/2000/svg" xmlns:xlink="http://www.w3.org/1999/xlink" xmlns:svgjs="http://svgjs.com/svgjs" viewBox="0.353 0 55.295 40" fill="none" stroke-miterlimit="100" stroke="#535461" stroke-width="2" x="1703" y="607"><svg xmlns="http://www.w3.org/2000/svg" xmlns:xlink="http://www.w3.org/1999/xlink" width="56" height="40" viewBox="0.292 0.167 54.909 39.721"><path paint-order="stroke fill markers" d="M.292.167s18.964 10.528 25.044 19.24c6.08 8.71 29.865 20.482 29.865 20.482L.291.167"/></svg></svg><svg width="64" height="71" xmlns="http://www.w3.org/2000/svg" xmlns:xlink="http://www.w3.org/1999/xlink" xmlns:svgjs="http://svgjs.com/svgjs" viewBox="0 0.318 64 70.364" fill="#6c63ff" x="1759" y="620"><svg xmlns="http://www.w3.org/2000/svg" xmlns:xlink="http://www.w3.org/1999/xlink" width="64" height="71" viewBox="0.094 0.837 63.057 69.327"><path paint-order="stroke fill markers" fill-rule="evenodd" d="M21.194 26.011C3.778 45.151.094 70.165.094 70.165S24.65 64.138 42.05 44.99C59.45 25.843 63.15.837 63.15.837S38.61 6.872 21.194 26.011z"/></svg></svg><svg width="64" height="71" xmlns="http://www.w3.org/2000/svg" xmlns:xlink="http://www.w3.org/1999/xlink" xmlns:svgjs="http://svgjs.com/svgjs" viewBox="0 0.33 64 70.34" fill="none" stroke-miterlimit="100" stroke="#535461" stroke-width="2" x="1759" y="620"><svg xmlns="http://www.w3.org/2000/svg" xmlns:xlink="http://www.w3.org/1999/xlink" width="64" height="71" viewBox="0.094 0.845 63.072 69.32"><path paint-order="stroke fill markers" d="M63.166.845S40.479 20.465 34.71 33.983C28.944 47.501.094 70.165.094 70.165L63.166.845"/></svg></svg><svg width="52" height="34" xmlns="http://www.w3.org/2000/svg" xmlns:xlink="http://www.w3.org/1999/xlink" xmlns:svgjs="http://svgjs.com/svgjs" viewBox="0 0.506 52 32.987" fill="#dfe6f5" x="1376" y="568"><svg xmlns="http://www.w3.org/2000/svg" xmlns:xlink="http://www.w3.org/1999/xlink" width="52" height="34" viewBox="0.284 0.956 51.576 32.718"><path paint-order="stroke fill markers" fill-rule="evenodd" d="M51.86 31.936v1.739H.283v-1.411a17.338 17.338 0 0 0 3.982-2.121 16.943 16.943 0 0 0 7.079-13.777c0-1.408-.176-2.81-.526-4.173A16.958 16.958 0 0 0 1.45.956h50.058a16.958 16.958 0 0 0-9.368 11.237 16.72 16.72 0 0 0-.519 4.173 16.935 16.935 0 0 0 7.072 13.777c.99.706 2.05 1.307 3.165 1.792z"/></svg></svg><svg width="51" height="13" xmlns="http://www.w3.org/2000/svg" xmlns:xlink="http://www.w3.org/1999/xlink" xmlns:svgjs="http://svgjs.com/svgjs" viewBox="0 0.776 51 11.448" opacity=".102" x="1377" y="568"><svg xmlns="http://www.w3.org/2000/svg" xmlns:xlink="http://www.w3.org/1999/xlink" width="51" height="13" viewBox="0.451 0.956 50.058 11.237"><path paint-order="stroke fill markers" fill-rule="evenodd" d="M50.509.956a16.958 16.958 0 0 0-9.368 11.237H9.819A16.958 16.958 0 0 0 .45.956h50.058z"/></svg></svg><svg width="170" height="20" xmlns="http://www.w3.org/2000/svg" xmlns:xlink="http://www.w3.org/1999/xlink" xmlns:svgjs="http://svgjs.com/svgjs" viewBox="0 0.175 170 19.65" fill="#dfe6f5" x="1317" y="560"><svg xmlns="http://www.w3.org/2000/svg" xmlns:xlink="http://www.w3.org/1999/xlink" width="170" height="20" viewBox="0.232 0.069 169.412 19.582"><path paint-order="stroke fill markers" fill-rule="evenodd" d="M.232.07v9.794c0 5.401 3.951 9.788 8.834 9.788h151.737c4.882 0 8.841-4.387 8.841-9.788V.07H.232z"/></svg></svg><svg width="52" height="4" xmlns="http://www.w3.org/2000/svg" xmlns:xlink="http://www.w3.org/1999/xlink" xmlns:svgjs="http://svgjs.com/svgjs" viewBox="0 0.22 52 3.561" opacity=".102" x="1376" y="598"><svg xmlns="http://www.w3.org/2000/svg" xmlns:xlink="http://www.w3.org/1999/xlink" width="52" height="4" viewBox="0.284 0.143 51.576 3.532"><path paint-order="stroke fill markers" fill-rule="evenodd" d="M51.86 1.936v1.739H.283V2.264A17.338 17.338 0 0 0 4.266.143h44.428c.99.706 2.05 1.307 3.165 1.792z"/></svg></svg><svg width="86" height="6" xmlns="http://www.w3.org/2000/svg" xmlns:xlink="http://www.w3.org/1999/xlink" xmlns:svgjs="http://svgjs.com/svgjs" viewBox="0 0.408 86 5.185" fill="#dfe6f5" x="1359" y="598"><svg xmlns="http://www.w3.org/2000/svg" xmlns:xlink="http://www.w3.org/1999/xlink" width="86" height="6" viewBox="0.242 0.684 85.66 5.165"><path paint-order="stroke fill markers" fill-rule="evenodd" d="M2.824.684h80.495a2.58 2.58 0 0 1 2.582 2.583 2.58 2.58 0 0 1-2.582 2.582H2.824A2.58 2.58 0 0 1 .242 3.267 2.58 2.58 0 0 1 2.824.684z"/></svg></svg><svg width="170" height="119" xmlns="http://www.w3.org/2000/svg" xmlns:xlink="http://www.w3.org/1999/xlink" xmlns:svgjs="http://svgjs.com/svgjs" viewBox="0 0.285 170 118.429" fill="#474157" x="1317" y="443"><svg xmlns="http://www.w3.org/2000/svg" xmlns:xlink="http://www.w3.org/1999/xlink" width="170" height="119" viewBox="0.232 0.957 169.412 118.02"><path paint-order="stroke fill markers" fill-rule="evenodd" d="M169.644 9.79a8.834 8.834 0 0 0-8.841-8.833H9.066A8.826 8.826 0 0 0 .232 9.79v109.185h169.412V9.791z"/></svg></svg><svg width="162" height="103" xmlns="http://www.w3.org/2000/svg" xmlns:xlink="http://www.w3.org/1999/xlink" xmlns:svgjs="http://svgjs.com/svgjs" viewBox="0.553 0 160.895 103" fill="#4c4c78" x="1321" y="452"><svg xmlns="http://www.w3.org/2000/svg" xmlns:xlink="http://www.w3.org/1999/xlink" width="162" height="103" viewBox="0.855 0.386 160.167 102.534"><path paint-order="stroke fill markers" fill-rule="evenodd" d="M161.021 4.734v93.83a4.347 4.347 0 0 1-4.348 4.356H5.203a4.349 4.349 0 0 1-4.348-4.356V4.734a4.287 4.287 0 0 1 .58-2.174A4.348 4.348 0 0 1 5.203.386h151.47a4.348 4.348 0 0 1 4.348 4.348z"/></svg></svg><svg width="5" height="5" xmlns="http://www.w3.org/2000/svg" xmlns:xlink="http://www.w3.org/1999/xlink" xmlns:svgjs="http://svgjs.com/svgjs" fill="#fff" x="1399" y="446"><svg xmlns="http://www.w3.org/2000/svg" xmlns:xlink="http://www.w3.org/1999/xlink" width="5" height="5" viewBox="0.901 0.131 4.074 4.074"><path paint-order="stroke fill markers" fill-rule="evenodd" d="M2.938 4.205A2.035 2.035 0 0 1 .901 2.168C.901 1.04 1.811.13 2.938.13c1.126 0 2.037.91 2.037 2.037 0 1.126-.91 2.037-2.037 2.037z"/></svg></svg><svg width="11" height="11" xmlns="http://www.w3.org/2000/svg" xmlns:xlink="http://www.w3.org/1999/xlink" xmlns:svgjs="http://svgjs.com/svgjs" fill="#fff" x="1396" y="565"><svg xmlns="http://www.w3.org/2000/svg" xmlns:xlink="http://www.w3.org/1999/xlink" width="11" height="11" viewBox="0.911 0.241 10.054 10.054"><path paint-order="stroke fill markers" fill-rule="evenodd" d="M5.938 10.296A5.022 5.022 0 0 1 .911 5.269 5.022 5.022 0 0 1 5.938.24a5.023 5.023 0 0 1 5.027 5.028 5.023 5.023 0 0 1-5.027 5.027z"/></svg></svg><svg width="162" height="5" xmlns="http://www.w3.org/2000/svg" xmlns:xlink="http://www.w3.org/1999/xlink" xmlns:svgjs="http://svgjs.com/svgjs" viewBox="0 0.301 162 4.398" fill="#c8cad7" x="1321" y="452"><svg xmlns="http://www.w3.org/2000/svg" xmlns:xlink="http://www.w3.org/1999/xlink" width="162" height="5" viewBox="0.87 0.386 160.151 4.348"><path paint-order="stroke fill markers" fill-rule="evenodd" d="M161.021 4.734H.87A4.348 4.348 0 0 1 5.218.386h151.455a4.348 4.348 0 0 1 4.348 4.348z"/></svg></svg><svg width="3" height="3" xmlns="http://www.w3.org/2000/svg" xmlns:xlink="http://www.w3.org/1999/xlink" xmlns:svgjs="http://svgjs.com/svgjs" fill="#ededf4" x="1325" y="453"><svg xmlns="http://www.w3.org/2000/svg" xmlns:xlink="http://www.w3.org/1999/xlink" width="3" height="3" viewBox="0.112 0.47 2.182 2.182"><path paint-order="stroke fill markers" fill-rule="evenodd" d="M1.203 2.651a1.09 1.09 0 1 1 0-2.181 1.09 1.09 0 1 1 0 2.181z"/></svg></svg><svg width="3" height="3" xmlns="http://www.w3.org/2000/svg" xmlns:xlink="http://www.w3.org/1999/xlink" xmlns:svgjs="http://svgjs.com/svgjs" fill="#ededf4" x="1328" y="453"><svg xmlns="http://www.w3.org/2000/svg" xmlns:xlink="http://www.w3.org/1999/xlink" width="3" height="3" viewBox="0.377 0.47 2.182 2.182"><path paint-order="stroke fill markers" fill-rule="evenodd" d="M1.468 2.651a1.09 1.09 0 1 1 0-2.181 1.09 1.09 0 1 1 0 2.181z"/></svg></svg><svg width="3" height="3" xmlns="http://www.w3.org/2000/svg" xmlns:xlink="http://www.w3.org/1999/xlink" xmlns:svgjs="http://svgjs.com/svgjs" fill="#ededf4" x="1331" y="453"><svg xmlns="http://www.w3.org/2000/svg" width="3" height="3" viewBox="0.642 0.47 2.182 2.182"><path paint-order="stroke fill markers" fill-rule="evenodd" d="M1.733 2.651a1.09 1.09 0 1 1 0-2.181 1.09 1.09 0 1 1 0 2.181z"/></svg></svg></svg>