<svg width="32" height="31" xmlns="http://www.w3.org/2000/svg" xmlns:xlink="http://www.w3.org/1999/xlink" xmlns:svgjs="http://svgjs.com/svgjs" viewBox="174 845 32 31"><svg width="6" height="6" xmlns="http://www.w3.org/2000/svg" xmlns:xlink="http://www.w3.org/1999/xlink" xmlns:svgjs="http://svgjs.com/svgjs" viewBox="194 845 6 6" x="194" y="845"><svg width="6" height="6" xmlns="http://www.w3.org/2000/svg" xmlns:xlink="http://www.w3.org/1999/xlink" xmlns:svgjs="http://svgjs.com/svgjs" viewBox="194 845 6 6" x="194" y="845"><svg width="6" height="6" xmlns="http://www.w3.org/2000/svg" xmlns:xlink="http://www.w3.org/1999/xlink" xmlns:svgjs="http://svgjs.com/svgjs" viewBox="0.638 0 4.723 6" fill="#fff" x="194" y="845"><svg xmlns="http://www.w3.org/2000/svg" xmlns:xlink="http://www.w3.org/1999/xlink" width="6" height="6" viewBox="0.823 0 4.197 5.332"><path paint-order="stroke fill markers" fill-rule="evenodd" d="M4.976 4.683A14.628 14.628 0 0 0 1.581.117.454.454 0 0 0 .973.79a13.72 13.72 0 0 1 3.184 4.282.454.454 0 0 0 .82-.389z"/></svg></svg></svg></svg><svg width="4" height="5" xmlns="http://www.w3.org/2000/svg" xmlns:xlink="http://www.w3.org/1999/xlink" xmlns:svgjs="http://svgjs.com/svgjs" viewBox="193 847 4 5" x="193" y="847"><svg width="4" height="5" xmlns="http://www.w3.org/2000/svg" xmlns:xlink="http://www.w3.org/1999/xlink" xmlns:svgjs="http://svgjs.com/svgjs" viewBox="193 847 4 5" x="193" y="847"><svg width="4" height="5" xmlns="http://www.w3.org/2000/svg" xmlns:xlink="http://www.w3.org/1999/xlink" xmlns:svgjs="http://svgjs.com/svgjs" viewBox="0 0.016 4 4.967" fill="#fff" x="193" y="847"><svg xmlns="http://www.w3.org/2000/svg" xmlns:xlink="http://www.w3.org/1999/xlink" width="4" height="5" viewBox="0.425 0.244 3.044 3.781"><path paint-order="stroke fill markers" fill-rule="evenodd" d="M3.417 3.36A12.04 12.04 0 0 0 1.197.374a.454.454 0 0 0-.636.647 11.13 11.13 0 0 1 2.053 2.76.453.453 0 1 0 .803-.421z"/></svg></svg></svg></svg><svg width="6" height="7" xmlns="http://www.w3.org/2000/svg" xmlns:xlink="http://www.w3.org/1999/xlink" xmlns:svgjs="http://svgjs.com/svgjs" viewBox="174 859 6 7" x="174" y="859"><svg width="6" height="7" xmlns="http://www.w3.org/2000/svg" xmlns:xlink="http://www.w3.org/1999/xlink" xmlns:svgjs="http://svgjs.com/svgjs" viewBox="174 859 6 7" x="174" y="859"><svg width="6" height="7" xmlns="http://www.w3.org/2000/svg" xmlns:xlink="http://www.w3.org/1999/xlink" xmlns:svgjs="http://svgjs.com/svgjs" viewBox="0.245 0 5.511 7" fill="#fff" x="174" y="859"><svg xmlns="http://www.w3.org/2000/svg" xmlns:xlink="http://www.w3.org/1999/xlink" width="6" height="7" viewBox="1 0.739 4.198 5.332"><path paint-order="stroke fill markers" fill-rule="evenodd" d="M5.048 5.28A13.744 13.744 0 0 1 1.864.998a.454.454 0 1 0-.82.39 14.628 14.628 0 0 0 3.395 4.565.454.454 0 0 0 .609-.673z"/></svg></svg></svg></svg><svg width="4" height="4" xmlns="http://www.w3.org/2000/svg" xmlns:xlink="http://www.w3.org/1999/xlink" xmlns:svgjs="http://svgjs.com/svgjs" viewBox="177 859 4 4" x="177" y="859"><svg width="4" height="4" xmlns="http://www.w3.org/2000/svg" xmlns:xlink="http://www.w3.org/1999/xlink" xmlns:svgjs="http://svgjs.com/svgjs" viewBox="177 859 4 4" x="177" y="859"><svg width="4" height="4" xmlns="http://www.w3.org/2000/svg" xmlns:xlink="http://www.w3.org/1999/xlink" xmlns:svgjs="http://svgjs.com/svgjs" viewBox="0.39 0 3.22 4" fill="#fff" x="177" y="859"><svg xmlns="http://www.w3.org/2000/svg" xmlns:xlink="http://www.w3.org/1999/xlink" width="4" height="4" viewBox="0.551 0.046 3.044 3.781"><path paint-order="stroke fill markers" fill-rule="evenodd" d="M3.46 3.05A11.128 11.128 0 0 1 1.406.288.454.454 0 0 0 .604.71a12.04 12.04 0 0 0 2.22 2.986.454.454 0 1 0 .635-.648z"/></svg></svg></svg></svg><svg width="14" height="23" xmlns="http://www.w3.org/2000/svg" xmlns:xlink="http://www.w3.org/1999/xlink" xmlns:svgjs="http://svgjs.com/svgjs" viewBox="192 849 14 23" x="192" y="849"><svg width="14" height="23" xmlns="http://www.w3.org/2000/svg" xmlns:xlink="http://www.w3.org/1999/xlink" xmlns:svgjs="http://svgjs.com/svgjs" viewBox="192 849 14 23" x="192" y="849"><svg width="14" height="23" xmlns="http://www.w3.org/2000/svg" xmlns:xlink="http://www.w3.org/1999/xlink" xmlns:svgjs="http://svgjs.com/svgjs" viewBox="0 0.092 14 22.816" fill="#fff" x="192" y="849"><svg xmlns="http://www.w3.org/2000/svg" xmlns:xlink="http://www.w3.org/1999/xlink" width="14" height="23" viewBox="0.007 0.488 13.281 21.644"><path paint-order="stroke fill markers" fill-rule="evenodd" d="M12.888 18.494l-.808-1.087c.115-.443.486-1.558.3-3.105-.2-1.68-.722-1.943-.887-2.91-.406-2.37.688-5.621.91-6.249l.018-.048c.477-1.51.793-2.508-.728-3.24-1.36-.655-2.792-.073-3.648 1.48-.052.096-1.15 2.113-1.621 4.866L.825.67a.454.454 0 0 0-.728.541L6.36 9.638a.454.454 0 0 0 .816-.228c.297-3.126 1.607-5.536 1.663-5.637.233-.423 1.1-1.755 2.46-1.1.859.413.702.653.25 2.166-.333.934-1.385 4.179-.952 6.707.208 1.212.692 1.283.881 2.864a6.356 6.356 0 0 1-.068 1.925c-.029.143-.194.82-.821 1.573a.454.454 0 0 0 .697.58c.086-.103.165-.206.238-.307l.635.855c.37.496.266 1.2-.23 1.569l-.955.71a.454.454 0 0 0 .271.817c.256 0 .298-.144 1.225-.8a2.031 2.031 0 0 0 .417-2.838z"/></svg></svg></svg></svg><svg width="14" height="7" xmlns="http://www.w3.org/2000/svg" xmlns:xlink="http://www.w3.org/1999/xlink" xmlns:svgjs="http://svgjs.com/svgjs" viewBox="188 869 14 7" x="188" y="869"><svg width="14" height="7" xmlns="http://www.w3.org/2000/svg" xmlns:xlink="http://www.w3.org/1999/xlink" xmlns:svgjs="http://svgjs.com/svgjs" viewBox="188 869 14 7" x="188" y="869"><svg width="14" height="7" xmlns="http://www.w3.org/2000/svg" xmlns:xlink="http://www.w3.org/1999/xlink" xmlns:svgjs="http://svgjs.com/svgjs" viewBox="0 0.105 14 6.789" fill="#fff" x="188" y="869"><svg xmlns="http://www.w3.org/2000/svg" xmlns:xlink="http://www.w3.org/1999/xlink" width="14" height="7" viewBox="0.082 0.218 13.915 6.748"><path paint-order="stroke fill markers" fill-rule="evenodd" d="M13.908 2.673a.453.453 0 0 0-.635-.093l-4.38 3.256a1.135 1.135 0 0 1-1.585-.233c-.181-.19-.79-1.384-2.29-1.83C2.32 2.972 1.411.951.9.401a.454.454 0 0 0-.728.542c.479.51 1.557 2.8 4.587 3.7 1.165.346 1.626 1.292 1.82 1.501a2.043 2.043 0 0 0 2.856.42l4.38-3.256a.454.454 0 0 0 .093-.635z"/></svg></svg></svg></svg><svg width="15" height="23" xmlns="http://www.w3.org/2000/svg" xmlns:xlink="http://www.w3.org/1999/xlink" xmlns:svgjs="http://svgjs.com/svgjs" viewBox="179 846 15 23" x="179" y="846"><svg width="15" height="23" xmlns="http://www.w3.org/2000/svg" xmlns:xlink="http://www.w3.org/1999/xlink" xmlns:svgjs="http://svgjs.com/svgjs" viewBox="179 846 15 23" x="179" y="846"><svg width="15" height="23" xmlns="http://www.w3.org/2000/svg" xmlns:xlink="http://www.w3.org/1999/xlink" xmlns:svgjs="http://svgjs.com/svgjs" viewBox="179 846 15 23" x="179" y="846"><svg width="1" height="1" xmlns="http://www.w3.org/2000/svg" xmlns:xlink="http://www.w3.org/1999/xlink" xmlns:svgjs="http://svgjs.com/svgjs" viewBox="0.133 0 0.733 1" fill="#fff" x="180" y="860"><svg xmlns="http://www.w3.org/2000/svg" xmlns:xlink="http://www.w3.org/1999/xlink" width="1" height="1" viewBox="0.877 0.131 0.003 0.004"><path paint-order="stroke fill markers" fill-rule="evenodd" d="M.88.135L.877.131.88.135z"/></svg></svg><svg width="1" height="1" xmlns="http://www.w3.org/2000/svg" xmlns:xlink="http://www.w3.org/1999/xlink" xmlns:svgjs="http://svgjs.com/svgjs" viewBox="0.317 -0.001 0.367 1" fill="#fff" x="180" y="860"><svg xmlns="http://www.w3.org/2000/svg" xmlns:xlink="http://www.w3.org/1999/xlink" width="1" height="1" viewBox="0.876 0.129 0 0"><path paint-order="stroke fill markers" fill-rule="evenodd" d="M.876.13z"/></svg></svg><svg width="15" height="23" xmlns="http://www.w3.org/2000/svg" xmlns:xlink="http://www.w3.org/1999/xlink" xmlns:svgjs="http://svgjs.com/svgjs" viewBox="0.079 0 14.842 23" fill="#fff" x="179" y="846"><svg xmlns="http://www.w3.org/2000/svg" width="15" height="23" viewBox="0.57 0.145 14.376 22.279"><path paint-order="stroke fill markers" fill-rule="evenodd" d="M14.856 11.31L8.897 3.295a1.412 1.412 0 0 1 .401-2.049c.614-.376 1.443-.202 1.888.396l.646.868a.454.454 0 1 0 .728-.541l-.646-.869C10.76-.452 8.318-.045 7.796 1.833 6.483.388 4.078 1.06 3.768 2.996c-.09.559.024 1.116.32 1.59-1.922-.041-3.05 2.164-1.883 3.734l.71.954c-1.958-.02-3.018 2.194-1.874 3.733l.835 1.123.001.001h-.001l.014.018a.981.981 0 0 0-.01-.014l.013.017 6.014 8.089a.453.453 0 1 0 .728-.542l-6.866-9.233c-.748-1.007.024-2.402 1.252-2.278.673.068.984.557.992.563l4.128 5.552a.453.453 0 1 0 .728-.541L2.933 7.778c-.453-.608-.371-1.46.185-1.94a1.41 1.41 0 0 1 2.057.225l5.602 7.534a.453.453 0 1 0 .728-.541l-6.58-8.85a1.41 1.41 0 0 1 .321-1.998c.62-.436 1.503-.28 1.97.347l6.912 9.296a.454.454 0 0 0 .728-.54zM1.893 14.153c.005.006.004.005 0 0z"/></svg></svg></svg></svg></svg></svg>